<?xml version="1.0" encoding="UTF-8" standalone="no"?>
<!-- Created with Inkscape (http://www.inkscape.org/) -->

<svg
   width="900mm"
   height="900mm"
   viewBox="0 0 900 900"
   version="1.1"
   id="svg1"
   xmlns="http://www.w3.org/2000/svg"
   xmlns:svg="http://www.w3.org/2000/svg">
  <defs
     id="defs1" />
  <g
     id="layer1">
    <path
       id="path227"
       d="M 760.98364,483.64495 466.15136,778.48312 c -19.24503,19.24457 -50.45079,19.24457 -69.69526,0 L 101.62188,483.64495 c -19.247013,-19.24444 -19.247013,-50.44968 0,-69.69425 L 396.4561,119.11754 c 19.24447,-19.244575 50.45023,-19.244575 69.69526,0 L 760.98364,413.9507 c 19.2495,19.24457 19.2495,50.44981 0,69.69425"
       style="fill:#f0e0f2;fill-opacity:1;fill-rule:nonzero;stroke:none;stroke-width:0.492817" />
    <path
       id="path228"
       d="m 417.08888,298.37997 c -0.66425,0 -1.32809,-0.26546 -1.81557,-0.79347 -0.91998,-1.00577 -0.85253,-2.56256 0.14823,-3.48413 32.94196,-30.30338 73.70883,-49.41983 117.88997,-55.28934 1.36513,-0.17194 2.58727,0.76833 2.7647,2.11431 0.18244,1.35086 -0.76876,2.5922 -2.11418,2.76963 -43.17577,5.73637 -83.01121,24.42392 -115.20605,54.03242 -0.47151,0.43832 -1.07034,0.65103 -1.66719,0.65103"
       style="fill:#151933;fill-opacity:1;fill-rule:nonzero;stroke:none;stroke-width:0.492817" />
    <path
       id="path229"
       d="m 350.0464,425.25099 c -0.11618,0 -0.23689,-0.004 -0.3542,-0.0274 -1.34733,-0.19247 -2.28124,-1.44403 -2.08658,-2.78946 5.37864,-37.26193 20.5402,-72.6709 43.84504,-102.39763 0.84323,-1.07008 2.38527,-1.26146 3.46156,-0.41914 1.0704,0.83816 1.25923,2.3902 0.41824,3.4596 -22.77558,29.04664 -37.59114,63.6475 -42.84852,100.05685 -0.17516,1.2321 -1.23002,2.11414 -2.43505,2.11414"
       style="fill:#151933;fill-opacity:1;fill-rule:nonzero;stroke:none;stroke-width:0.492817" />
    <path
       id="path230"
       d="m 390.46344,584.42134 c -0.75104,0 -1.49228,-0.34527 -1.97725,-0.99045 -21.70907,-29.00725 -35.8697,-63.24332 -40.95015,-99.00717 -0.19083,-1.35085 0.74509,-2.59708 2.09247,-2.78928 1.35131,-0.19703 2.59519,0.74881 2.78737,2.09447 4.96124,34.95064 18.80052,68.40318 40.01679,96.7501 0.81613,1.08961 0.59288,2.63649 -0.49449,3.44966 -0.44287,0.32929 -0.96249,0.4934 -1.47451,0.4934"
       style="fill:#151933;fill-opacity:1;fill-rule:nonzero;stroke:none;stroke-width:0.492817" />
    <path
       id="path231"
       d="m 536.88454,668.95443 c -0.0995,0 -0.19201,-0.004 -0.29054,-0.009 -47.23166,-5.54427 -92.03422,-27.00148 -126.14657,-60.42438 -0.97193,-0.95132 -0.98771,-2.51344 -0.032,-3.48433 0.94912,-0.97646 2.50651,-0.99045 3.48231,-0.0274 33.33662,32.65891 77.11613,53.62833 123.26849,59.04941 1.35524,0.1578 2.3212,1.38438 2.16348,2.7351 -0.14778,1.25169 -1.2123,2.17336 -2.44438,2.17336"
       style="fill:#151933;fill-opacity:1;fill-rule:nonzero;stroke:none;stroke-width:0.492817" />
    <path
       id="path232"
       d="m 562.94474,317.87589 c -44.52116,0 -87.29776,-13.39978 -123.6963,-38.74049 -1.11675,-0.77809 -1.39378,-2.31125 -0.61408,-3.42996 0.77763,-1.12313 2.30979,-1.39956 3.43045,-0.61605 35.56818,24.76417 77.36901,37.85828 120.87987,37.85828 1.36026,0 2.46405,1.09946 2.46405,2.46413 0,1.36061 -1.10379,2.46409 -2.46405,2.46409"
       style="fill:#151933;fill-opacity:1;fill-rule:nonzero;stroke:none;stroke-width:0.492817" />
    <path
       id="path233"
       d="m 448.67903,633.65389 c -0.83137,0 -1.64354,-0.42327 -2.1078,-1.18329 -0.70813,-1.16778 -0.33659,-2.68087 0.82586,-3.38566 33.78417,-20.52584 72.64776,-31.37761 112.38368,-31.37761 1.36025,0 2.46409,1.10361 2.46409,2.46413 0,1.36482 -1.10388,2.46391 -2.46409,2.46391 -38.83404,0 -76.81057,10.6006 -109.82345,30.65834 -0.39999,0.24173 -0.84323,0.3594 -1.27834,0.3594"
       style="fill:#151933;fill-opacity:1;fill-rule:nonzero;stroke:none;stroke-width:0.492817" />
    <path
       id="path234"
       d="m 454.75642,438.33539 c -0.032,0 -0.0711,0 -0.10902,-0.004 -1.35925,-0.0561 -2.41433,-1.20695 -2.35467,-2.57249 4.01198,-91.77746 37.39009,-168.44509 83.05952,-190.7796 1.22218,-0.60073 2.69568,-0.0835 3.2969,1.12878 0.59639,1.22229 0.0879,2.6957 -1.13344,3.29691 -44.09735,21.56577 -76.36365,96.54308 -80.29827,186.57598 -0.0584,1.32015 -1.14735,2.35576 -2.46067,2.35576"
       style="fill:#151933;fill-opacity:1;fill-rule:nonzero;stroke:none;stroke-width:0.492817" />
    <path
       id="path235"
       d="m 537.57451,664.71619 c -0.34982,0 -0.7048,-0.0834 -1.0399,-0.23169 -46.79801,-21.81707 -80.68466,-99.54431 -84.32465,-193.41623 -0.0561,-1.36061 1.00485,-2.50851 2.3636,-2.55786 1.37449,-0.0976 2.50843,1.00582 2.55869,2.36061 3.51529,90.64409 37.02494,168.42058 81.48695,189.14363 1.23198,0.5769 1.76431,2.04512 1.19259,3.27713 -0.4187,0.89685 -1.31091,1.42432 -2.23741,1.42432"
       style="fill:#151933;fill-opacity:1;fill-rule:nonzero;stroke:none;stroke-width:0.492817" />
    <path
       id="path236"
       d="m 546.3466,390.31523 c -0.0274,0 -0.0561,0 -0.0739,0 -70.90664,-2.06993 -134.64523,-18.06671 -170.50564,-42.80625 -1.12019,-0.7739 -1.40304,-2.30636 -0.62931,-3.42508 0.76773,-1.12312 2.30245,-1.40448 3.42457,-0.63141 35.11132,24.21708 97.8584,39.89363 167.85332,41.93392 1.3602,0.041 2.42956,1.17763 2.39015,2.53798 -0.041,1.32993 -1.13353,2.39024 -2.45916,2.39024"
       style="fill:#151933;fill-opacity:1;fill-rule:nonzero;stroke:none;stroke-width:0.492817" />
    <path
       id="path237"
       d="m 377.1687,561.06176 c -0.78361,0 -1.55342,-0.37035 -2.03097,-1.06452 -0.77377,-1.11893 -0.49115,-2.65127 0.62935,-3.42503 35.83523,-24.71974 99.52999,-40.72154 170.38732,-42.80114 1.31095,0.0561 2.49374,1.02949 2.53313,2.39509 0.041,1.35505 -1.03003,2.49354 -2.39019,2.53295 -69.94067,2.05014 -132.64685,17.7266 -167.73501,41.92905 -0.42507,0.29646 -0.91419,0.43329 -1.39358,0.43329"
       style="fill:#151933;fill-opacity:1;fill-rule:nonzero;stroke:none;stroke-width:0.492817" />
    <path
       id="path238"
       d="m 562.12669,641.19402 c -1.36026,0 -2.46413,-1.10361 -2.46413,-2.46413 V 532.29602 c 0,-1.36061 1.10387,-2.46413 2.46413,-2.46413 1.36513,0 2.46404,1.10361 2.46404,2.46413 v 106.43387 c 0,1.36061 -1.09896,2.46413 -2.46404,2.46413"
       style="fill:#151933;fill-opacity:1;fill-rule:nonzero;stroke:none;stroke-width:0.492817" />
    <path
       id="path239"
       d="m 562.12669,502.78114 c -1.36026,0 -2.46413,-1.09946 -2.46413,-2.46412 v -96.73026 c 0,-1.36062 1.10387,-2.46409 2.46413,-2.46409 1.36513,0 2.46404,1.10356 2.46404,2.46409 v 96.73026 c 0,1.36485 -1.09896,2.46412 -2.46404,2.46412"
       style="fill:#151933;fill-opacity:1;fill-rule:nonzero;stroke:none;stroke-width:0.492817" />
    <path
       id="path240"
       d="m 562.12669,374.41185 c -1.36026,0 -2.46413,-1.09935 -2.46413,-2.46394 V 268.61379 c 0,-1.36483 1.10387,-2.46408 2.46413,-2.46408 1.36513,0 2.46404,1.09935 2.46404,2.46408 v 103.33412 c 0,1.36485 -1.09896,2.46394 -2.46404,2.46394"
       style="fill:#151933;fill-opacity:1;fill-rule:nonzero;stroke:none;stroke-width:0.492817" />
    <path
       id="path241"
       d="m 561.71761,456.13592 h -91.88933 c -1.36116,0 -2.46408,-1.10361 -2.46408,-2.46409 0,-1.36065 1.10292,-2.46414 2.46408,-2.46414 h 91.88933 c 1.36022,0 2.46409,1.10362 2.46409,2.46414 0,1.36066 -1.10387,2.46409 -2.46409,2.46409"
       style="fill:#151933;fill-opacity:1;fill-rule:nonzero;stroke:none;stroke-width:0.492817" />
    <path
       id="path242"
       d="m 439.53527,456.13592 h -60.30321 c -1.36062,0 -2.46404,-1.10361 -2.46404,-2.46409 0,-1.36065 1.10342,-2.46414 2.46404,-2.46414 h 60.30321 c 1.36062,0 2.46408,1.10362 2.46408,2.46414 0,1.36066 -1.10346,2.46409 -2.46408,2.46409"
       style="fill:#151933;fill-opacity:1;fill-rule:nonzero;stroke:none;stroke-width:0.492817" />
    <path
       id="path243"
       d="m 347.83465,429.20345 c -13.49086,0 -24.46591,10.97496 -24.46591,24.46838 0,13.48837 10.97505,24.46346 24.46591,24.46346 13.48897,0 24.46547,-10.97509 24.46547,-24.46346 0,-13.49342 -10.9765,-24.46838 -24.46547,-24.46838 z m 0,53.86012 c -16.20728,0 -29.39414,-13.18794 -29.39414,-29.39174 0,-16.20882 13.18686,-29.39656 29.39414,-29.39656 16.20679,0 29.39365,13.18774 29.39365,29.39656 0,16.2038 -13.18686,29.39174 -29.39365,29.39174"
       style="fill:#151933;fill-opacity:1;fill-rule:nonzero;stroke:none;stroke-width:0.492817" />
    <path
       id="path244"
       d="m 560.59404,215.12826 c -12.82808,0 -23.26594,10.43793 -23.26594,23.26599 0,12.83295 10.43786,23.27073 23.26594,23.27073 12.83294,0 23.27082,-10.43778 23.27082,-23.27073 0,-12.82806 -10.43788,-23.26599 -23.27082,-23.26599 z m 0,51.46498 c -15.54353,0 -28.19413,-12.65065 -28.19413,-28.19899 0,-15.54352 12.6506,-28.19407 28.19413,-28.19407 15.54834,0 28.19899,12.65055 28.19899,28.19407 0,15.54834 -12.65065,28.19899 -28.19899,28.19899"
       style="fill:#151933;fill-opacity:1;fill-rule:nonzero;stroke:none;stroke-width:0.492817" />
    <path
       id="path245"
       d="m 563.31928,645.04289 c -12.82803,0 -23.27082,10.43783 -23.27082,23.2659 0,12.82803 10.44279,23.26598 23.27082,23.26598 12.82802,0 23.26588,-10.43795 23.26588,-23.26598 0,-12.82807 -10.43786,-23.2659 -23.26588,-23.2659 z m 0,51.45998 c -15.5484,0 -28.19901,-12.64564 -28.19901,-28.19408 0,-15.5484 12.65061,-28.19407 28.19901,-28.19407 15.54838,0 28.19417,12.64567 28.19417,28.19407 0,15.54844 -12.64579,28.19408 -28.19417,28.19408"
       style="fill:#151933;fill-opacity:1;fill-rule:nonzero;stroke:none;stroke-width:0.492817" />
    <path
       id="path246"
       d="m 454.35231,441.31696 c -6.81074,0 -12.35492,5.54409 -12.35492,12.35487 0,6.81075 5.54418,12.35487 12.35492,12.35487 6.81272,0 12.35497,-5.54412 12.35497,-12.35487 0,-6.81078 -5.54225,-12.35487 -12.35497,-12.35487 z m 0,29.63797 c -9.5311,0 -17.28312,-7.75691 -17.28312,-17.2831 0,-9.53106 7.75202,-17.28313 17.28312,-17.28313 9.52911,0 17.28315,7.75207 17.28315,17.28313 0,9.52619 -7.75404,17.2831 -17.28315,17.2831"
       style="fill:#151933;fill-opacity:1;fill-rule:nonzero;stroke:none;stroke-width:0.492817" />
    <path
       id="path247"
       d="m 562.72299,503.6485 c -6.81071,0 -12.35493,5.53925 -12.35493,12.35493 0,6.81069 5.54422,12.35496 12.35493,12.35496 6.81073,0 12.35491,-5.54427 12.35491,-12.35496 0,-6.81568 -5.54418,-12.35493 -12.35491,-12.35493 z m 0,29.63811 c -9.53112,0 -17.2831,-7.75705 -17.2831,-17.28318 0,-9.53108 7.75198,-17.28311 17.2831,-17.28311 9.5311,0 17.28309,7.75203 17.28309,17.28311 0,9.52613 -7.75199,17.28318 -17.28309,17.28318"
       style="fill:#151933;fill-opacity:1;fill-rule:nonzero;stroke:none;stroke-width:0.492817" />
    <path
       id="path248"
       d="m 562.12669,375.72276 c -6.81076,0 -12.35497,5.54426 -12.35497,12.35994 0,6.81075 5.54421,12.34999 12.35497,12.34999 6.81566,0 12.35492,-5.53924 12.35492,-12.34999 0,-6.81568 -5.53926,-12.35994 -12.35492,-12.35994 z m 0,29.63815 c -9.53113,0 -17.28315,-7.75202 -17.28315,-17.27821 0,-9.53108 7.75202,-17.28797 17.28315,-17.28797 9.53106,0 17.28309,7.75689 17.28309,17.28797 0,9.52619 -7.75203,17.27821 -17.28309,17.27821"
       style="fill:#151933;fill-opacity:1;fill-rule:nonzero;stroke:none;stroke-width:0.492817" />
    <path
       id="path249"
       d="m 405.31105,296.62552 c -6.81079,0 -12.355,5.54418 -12.355,12.35496 0,6.8107 5.54421,12.35497 12.355,12.35497 6.81316,0 12.35543,-5.54427 12.35543,-12.35497 0,-6.81078 -5.54227,-12.35496 -12.35543,-12.35496 z m 0,29.63815 c -9.53061,0 -17.28319,-7.75203 -17.28319,-17.28319 0,-9.53107 7.75258,-17.28314 17.28319,-17.28314 9.5291,0 17.2836,7.75207 17.2836,17.28314 0,9.53116 -7.7545,17.28319 -17.2836,17.28319"
       style="fill:#151933;fill-opacity:1;fill-rule:nonzero;stroke:none;stroke-width:0.492817" />
    <path
       id="path250"
       d="m 401.72675,583.28786 c -6.81269,0 -12.35492,5.53924 -12.35492,12.34998 0,6.81569 5.54223,12.35994 12.35492,12.35994 6.81271,0 12.353,-5.54425 12.353,-12.35994 0,-6.81074 -5.54029,-12.34998 -12.353,-12.34998 z m 0,29.63802 c -9.52914,0 -17.28315,-7.7519 -17.28315,-17.28804 0,-9.52618 7.75401,-17.2782 17.28315,-17.2782 9.52912,0 17.28119,7.75202 17.28119,17.2782 0,9.53614 -7.75207,17.28804 -17.28119,17.28804"
       style="fill:#151933;fill-opacity:1;fill-rule:nonzero;stroke:none;stroke-width:0.492817" />
    <path
       id="path251"
       d="m 709.17358,298.37997 c -0.59648,0 -1.19301,-0.21209 -1.66569,-0.65094 -32.1957,-29.60851 -72.03028,-48.29614 -115.206,-54.03252 -1.34538,-0.17742 -2.29647,-1.41927 -2.11418,-2.76958 0.17743,-1.34529 1.4144,-2.28666 2.76471,-2.11431 44.18113,5.86951 84.94709,24.98601 117.89196,55.28929 1.00021,0.92203 1.06447,2.47882 0.14276,3.48418 -0.48327,0.52652 -1.14825,0.79351 -1.81366,0.79351"
       style="fill:#151933;fill-opacity:1;fill-rule:nonzero;stroke:none;stroke-width:0.492817" />
    <path
       id="path252"
       d="m 776.21661,425.25099 c -1.20282,0 -2.25712,-0.88287 -2.43454,-2.11412 -5.25341,-36.40448 -20.07242,-71.00515 -42.85044,-100.05687 -0.8382,-1.06866 -0.65102,-2.6218 0.41915,-3.4596 1.07423,-0.84236 2.62185,-0.65094 3.45956,0.41914 23.31032,29.73171 38.47436,65.1357 43.84609,102.39763 0.19702,1.34525 -0.73896,2.59719 -2.08467,2.78942 -0.11167,0.009 -0.23625,0.0274 -0.35483,0.0274"
       style="fill:#151933;fill-opacity:1;fill-rule:nonzero;stroke:none;stroke-width:0.492817" />
    <path
       id="path253"
       d="m 735.80055,584.42134 c -0.51246,0 -1.02953,-0.16237 -1.47349,-0.4934 -1.0896,-0.81299 -1.31031,-2.36055 -0.49732,-3.44966 21.21584,-28.34692 35.05416,-61.79942 40.02174,-96.7501 0.19293,-1.34525 1.43415,-2.27185 2.78446,-2.09447 1.35085,0.19293 2.28671,1.43907 2.09442,2.78934 -5.08083,35.76383 -19.24457,70.00483 -40.95305,99.00719 -0.48332,0.64538 -1.22652,0.99041 -1.97629,0.99041"
       style="fill:#151933;fill-opacity:1;fill-rule:nonzero;stroke:none;stroke-width:0.492817" />
    <path
       id="path254"
       d="m 589.38439,668.95443 c -1.23194,0 -2.30143,-0.92198 -2.44432,-2.17338 -0.16284,-1.35088 0.80828,-2.57741 2.15854,-2.73514 46.15242,-5.42107 89.93425,-26.39045 123.26848,-59.04935 0.97646,-0.95551 2.5331,-0.9318 3.48428,0.0274 0.95133,0.97088 0.93595,2.5331 -0.0274,3.48432 -34.11288,33.42291 -78.91002,54.88012 -126.14661,60.42443 -0.0939,0.009 -0.19202,0.009 -0.28552,0.009"
       style="fill:#151933;fill-opacity:1;fill-rule:nonzero;stroke:none;stroke-width:0.492817" />
    <path
       id="path255"
       d="m 563.31928,317.87589 c -1.36021,0 -2.46409,-1.10361 -2.46409,-2.46409 0,-1.36486 1.10388,-2.46413 2.46409,-2.46413 43.5109,0 85.31173,-13.09411 120.88335,-37.85828 1.11336,-0.77809 2.65131,-0.50293 3.42995,0.61605 0.77809,1.11897 0.50293,2.6513 -0.61609,3.42996 -36.40449,25.34071 -79.17596,38.74049 -123.69721,38.74049"
       style="fill:#151933;fill-opacity:1;fill-rule:nonzero;stroke:none;stroke-width:0.492817" />
    <path
       id="path256"
       d="m 677.58407,633.65389 c -0.43328,0 -0.87734,-0.1118 -1.27687,-0.3594 -33.01383,-20.05775 -70.99047,-30.65836 -109.81949,-30.65836 -1.36514,0 -2.46413,-1.09935 -2.46413,-2.46394 0,-1.36061 1.09899,-2.46408 2.46413,-2.46408 39.73591,0 78.59458,10.85177 112.37725,31.37759 1.16364,0.70412 1.53262,2.21772 0.82835,3.38567 -0.46361,0.75858 -1.27678,1.18325 -2.10924,1.18325"
       style="fill:#151933;fill-opacity:1;fill-rule:nonzero;stroke:none;stroke-width:0.492817" />
    <path
       id="path257"
       d="m 671.50759,438.33539 c -1.31039,0 -2.40493,-1.03515 -2.45912,-2.35572 -3.93275,-90.0329 -36.20247,-165.0102 -80.29982,-186.57598 -1.22219,-0.60066 -1.72978,-2.07472 -1.13343,-3.29695 0.60609,-1.21676 2.08461,-1.71979 3.29692,-1.12874 45.66949,22.3345 79.04802,99.00214 83.0595,190.77955 0.056,1.36487 -0.99601,2.51349 -2.35568,2.57251 -0.041,0.004 -0.0702,0.004 -0.1118,0.004"
       style="fill:#151933;fill-opacity:1;fill-rule:nonzero;stroke:none;stroke-width:0.492817" />
    <path
       id="path258"
       d="m 588.68954,664.71619 c -0.93148,0 -1.81849,-0.5282 -2.23735,-1.42433 -0.57168,-1.23214 -0.041,-2.70062 1.19253,-3.27711 44.46205,-20.72305 77.96879,-98.49954 81.48745,-189.14364 0.0561,-1.35506 1.27123,-2.45416 2.55782,-2.36061 1.36065,0.0561 2.41478,1.19724 2.36552,2.55787 -3.64195,93.87191 -37.52805,171.59914 -84.32616,193.41621 -0.33524,0.15235 -0.68995,0.2317 -1.0399,0.2317"
       style="fill:#151933;fill-opacity:1;fill-rule:nonzero;stroke:none;stroke-width:0.492817" />
    <path
       id="path259"
       d="m 579.91742,390.31523 c -1.32573,0 -2.41981,-1.06033 -2.45921,-2.39026 -0.041,-1.36065 1.03003,-2.49861 2.3902,-2.538 69.99491,-2.04025 132.74541,-17.71686 167.85372,-41.93394 1.11897,-0.77393 2.65637,-0.49339 3.42508,0.63147 0.77393,1.11898 0.49338,2.65131 -0.63142,3.42507 -35.85753,24.73949 -99.59849,40.73627 -170.50521,42.8062 -0.0228,0 -0.0456,0 -0.0739,0"
       style="fill:#151933;fill-opacity:1;fill-rule:nonzero;stroke:none;stroke-width:0.492817" />
    <path
       id="path260"
       d="m 749.09691,561.06176 c -0.47773,0 -0.96675,-0.13956 -1.39423,-0.43328 -35.08861,-24.20245 -97.78986,-39.87887 -167.73546,-41.92906 -1.36021,-0.041 -2.42957,-1.17763 -2.39016,-2.53294 0.041,-1.36487 1.3651,-2.34592 2.5331,-2.39513 70.85728,2.07964 134.55409,18.08144 170.38691,42.80117 1.12317,0.7739 1.40448,2.30643 0.63146,3.42504 -0.47772,0.69431 -1.24755,1.06456 -2.03039,1.06456"
       style="fill:#151933;fill-opacity:1;fill-rule:nonzero;stroke:none;stroke-width:0.492817" />
    <path
       id="path261"
       d="m 656.43723,456.13592 h -91.89084 c -1.3602,0 -2.46408,-1.10361 -2.46408,-2.46409 0,-1.36065 1.10388,-2.46414 2.46408,-2.46414 h 91.89084 c 1.36066,0 2.46414,1.10362 2.46414,2.46414 0,1.36066 -1.10362,2.46409 -2.46414,2.46409"
       style="fill:#151933;fill-opacity:1;fill-rule:nonzero;stroke:none;stroke-width:0.492817" />
    <path
       id="path262"
       d="m 747.03186,456.13592 h -60.3012 c -1.36478,0 -2.46405,-1.10361 -2.46405,-2.46409 0,-1.36065 1.09937,-2.46414 2.46405,-2.46414 h 60.3012 c 1.36484,0 2.46412,1.10362 2.46412,2.46414 0,1.36066 -1.09941,2.46409 -2.46412,2.46409"
       style="fill:#151933;fill-opacity:1;fill-rule:nonzero;stroke:none;stroke-width:0.492817" />
    <path
       id="path263"
       d="m 778.42934,429.20345 c -13.4884,0 -24.46351,10.97496 -24.46351,24.46838 0,13.48837 10.97511,24.46346 24.46351,24.46346 13.48841,0 24.4635,-10.97509 24.4635,-24.46346 0,-13.49342 -10.97509,-24.46838 -24.4635,-24.46838 z m 0,53.86012 c -16.20882,0 -29.39168,-13.18794 -29.39168,-29.39174 0,-16.20882 13.18286,-29.39656 29.39168,-29.39656 16.20886,0 29.39173,13.18774 29.39173,29.39656 0,16.2038 -13.18287,29.39174 -29.39173,29.39174"
       style="fill:#151933;fill-opacity:1;fill-rule:nonzero;stroke:none;stroke-width:0.492817" />
    <path
       id="path264"
       d="m 671.91165,441.31696 c -6.8107,0 -12.35488,5.54409 -12.35488,12.35487 0,6.81075 5.54418,12.35487 12.35488,12.35487 6.81566,0 12.35496,-5.54412 12.35496,-12.35487 0,-6.81078 -5.5393,-12.35487 -12.35496,-12.35487 z m 0,29.63797 c -9.53107,0 -17.28306,-7.75691 -17.28306,-17.2831 0,-9.53106 7.75199,-17.28313 17.28306,-17.28313 9.53106,0 17.28314,7.75207 17.28314,17.28313 0,9.52619 -7.75208,17.2831 -17.28314,17.2831"
       style="fill:#151933;fill-opacity:1;fill-rule:nonzero;stroke:none;stroke-width:0.492817" />
    <path
       id="path265"
       d="m 720.95195,296.62552 c -6.8107,0 -12.35488,5.54418 -12.35488,12.35496 0,6.8107 5.54418,12.35497 12.35488,12.35497 6.81563,0 12.35506,-5.54427 12.35506,-12.35497 0,-6.81078 -5.53943,-12.35496 -12.35506,-12.35496 z m 0,29.63815 c -9.53102,0 -17.28305,-7.75203 -17.28305,-17.28319 0,-9.53107 7.75203,-17.28314 17.28305,-17.28314 9.53107,0 17.2831,7.75207 17.2831,17.28314 0,9.53116 -7.75203,17.28319 -17.2831,17.28319"
       style="fill:#151933;fill-opacity:1;fill-rule:nonzero;stroke:none;stroke-width:0.492817" />
    <path
       id="path266"
       d="m 724.53474,583.28786 c -6.81074,0 -12.34999,5.53924 -12.34999,12.34998 0,6.81569 5.53925,12.35994 12.34999,12.35994 6.81567,0 12.35506,-5.54425 12.35506,-12.35994 0,-6.81074 -5.53939,-12.34998 -12.35506,-12.34998 z m 0,29.63802 c -9.52618,0 -17.27821,-7.7519 -17.27821,-17.28804 0,-9.52618 7.75203,-17.2782 17.27821,-17.2782 9.53107,0 17.28315,7.75202 17.28315,17.2782 0,9.53614 -7.75208,17.28804 -17.28315,17.28804"
       style="fill:#151933;fill-opacity:1;fill-rule:nonzero;stroke:none;stroke-width:0.492817" />
    <path
       id="path267"
       d="m 842.76669,315.5547 c -0.48779,0 -0.98069,-0.14824 -1.40942,-0.44288 l -22.12745,-15.43998 c -1.11346,-0.78369 -1.38448,-2.31627 -0.61189,-3.43496 0.77394,-1.11337 2.31144,-1.38999 3.43501,-0.61048 l 22.12257,15.43993 c 1.11894,0.7837 1.39,2.31617 0.61044,3.43488 -0.47767,0.68447 -1.24746,1.05467 -2.02055,1.05467"
       style="fill:#151933;fill-opacity:1;fill-rule:nonzero;stroke:none;stroke-width:0.492817" />
    <path
       id="path268"
       d="m 807.00302,281.85084 c -1.36067,0 -2.46413,-1.10361 -2.46413,-2.46404 v -23.77851 c 0,-1.36475 1.10359,-2.46404 2.46413,-2.46404 1.36482,0 2.46395,1.09936 2.46395,2.46404 v 23.77851 c 0,1.36062 -1.09941,2.46404 -2.46395,2.46404"
       style="fill:#151933;fill-opacity:1;fill-rule:nonzero;stroke:none;stroke-width:0.492817" />
    <path
       id="path269"
       d="m 771.24404,315.5547 c -0.77393,0 -1.54254,-0.3699 -2.02053,-1.05472 -0.77809,-1.11898 -0.5069,-2.65131 0.6119,-3.43484 l 22.12242,-15.43992 c 1.11898,-0.77395 2.65634,-0.50295 3.43014,0.61042 0.77809,1.11898 0.50686,2.65132 -0.61047,3.43503 l -22.12262,15.43994 c -0.42873,0.29645 -0.92204,0.44285 -1.40942,0.44285"
       style="fill:#151933;fill-opacity:1;fill-rule:nonzero;stroke:none;stroke-width:0.492817" />
    <path
       id="path270"
       d="M 185.40682,487.37064 H 46.857491 c -1.363153,0 -2.464088,-1.09941 -2.464088,-2.46396 0,-1.36062 1.100945,-2.46414 2.464088,-2.46414 H 185.40682 c 1.36065,0 2.4641,1.10361 2.4641,2.46414 0,1.36486 -1.10347,2.46396 -2.4641,2.46396"
       style="fill:#151933;fill-opacity:1;fill-rule:nonzero;stroke:none;stroke-width:0.492817" />
    <path
       id="path271"
       d="m 139.15488,518.69911 h -24.64089 c -1.3626,0 -2.46408,-1.09945 -2.46408,-2.46408 0,-1.36067 1.1015,-2.46396 2.46408,-2.46396 h 24.64089 c 1.36121,0 2.4641,1.10361 2.4641,2.46396 0,1.3648 -1.10291,2.46408 -2.4641,2.46408 z m 49.28178,0 h -24.64088 c -1.36261,0 -2.4641,-1.09945 -2.4641,-2.46408 0,-1.36067 1.10151,-2.46396 2.4641,-2.46396 h 24.64088 c 1.3612,0 2.4641,1.10361 2.4641,2.46396 0,1.3648 -1.1029,2.46408 -2.4641,2.46408 z m 49.2818,0 h -24.64089 c -1.3626,0 -2.4641,-1.09945 -2.4641,-2.46408 0,-1.36067 1.10151,-2.46396 2.4641,-2.46396 h 24.64089 c 1.3612,0 2.46408,1.10361 2.46408,2.46396 0,1.3648 -1.10289,2.46408 -2.46408,2.46408"
       style="fill:#151933;fill-opacity:1;fill-rule:nonzero;stroke:none;stroke-width:0.492817" />
    <path
       id="path272"
       d="M 744.29679,142.55091 H 605.74601 c -1.36062,0 -2.46409,-1.09942 -2.46409,-2.46395 0,-1.36066 1.10383,-2.46413 2.46409,-2.46413 h 138.55078 c 1.36478,0 2.46405,1.1036 2.46405,2.46413 0,1.36486 -1.09937,2.46395 -2.46405,2.46395"
       style="fill:#151933;fill-opacity:1;fill-rule:nonzero;stroke:none;stroke-width:0.492817" />
    <path
       id="path273"
       d="m 775.25074,170.97673 h -61.9128 c -1.36062,0 -2.46405,-1.10361 -2.46405,-2.46405 0,-1.36071 1.10356,-2.46413 2.46405,-2.46413 h 61.9128 c 1.36476,0 2.46403,1.10361 2.46403,2.46413 0,1.36062 -1.09937,2.46405 -2.46403,2.46405"
       style="fill:#151933;fill-opacity:1;fill-rule:nonzero;stroke:none;stroke-width:0.492817" />
    <path
       id="path274"
       d="m 129.87807,111.39009 c -4.07757,0 -7.39227,3.31671 -7.39227,7.39235 v 199.00479 c 0,4.07559 3.3147,7.39212 7.39227,7.39212 h 199.0043 c 4.07706,0 7.39228,-3.31653 7.39228,-7.39212 V 118.78244 c 0,-4.07564 -3.31522,-7.39235 -7.39228,-7.39235 z m 199.0043,218.71749 h -199.0043 c -6.79349,0 -12.32044,-5.52936 -12.32044,-12.32035 V 118.78244 c 0,-6.79108 5.52695,-12.32053 12.32044,-12.32053 h 199.0043 c 6.79348,0 12.32046,5.52945 12.32046,12.32053 v 199.00479 c 0,6.79099 -5.52698,12.32035 -12.32046,12.32035"
       style="fill:#151933;fill-opacity:1;fill-rule:nonzero;stroke:none;stroke-width:0.492817" />
    <path
       id="path275"
       d="m 168.41988,149.93341 c -4.0756,0 -7.39227,3.31671 -7.39227,7.39222 v 121.91822 c 0,4.07561 3.31667,7.39232 7.39227,7.39232 h 121.92021 c 4.07559,0 7.39222,-3.31671 7.39222,-7.39232 V 157.32563 c 0,-4.07551 -3.31663,-7.39222 -7.39222,-7.39222 z M 290.34009,291.56438 H 168.41988 c -6.7935,0 -12.32043,-5.52952 -12.32043,-12.32053 V 157.32563 c 0,-6.79596 5.52693,-12.3204 12.32043,-12.3204 h 121.92021 c 6.79202,0 12.32041,5.52444 12.32041,12.3204 v 121.91822 c 0,6.79101 -5.52839,12.32053 -12.32041,12.32053"
       style="fill:#151933;fill-opacity:1;fill-rule:nonzero;stroke:none;stroke-width:0.492817" />
    <path
       id="path276"
       d="m 180.4959,165.01368 c -0.70282,0 -1.2725,0.57134 -1.2725,1.27126 v 82.82796 c 0,0.69982 0.56968,1.27117 1.2725,1.27117 h 18.9927 c 3.41867,0 6.20062,2.77943 6.20062,6.19962 V 270.284 c 0,0.69988 0.56969,1.27126 1.27446,1.27126 h 44.83656 c 0.69877,0 1.27055,-0.57138 1.27055,-1.27126 v -13.70031 c 0,-3.42019 2.78194,-6.19962 6.20114,-6.19962 h 18.9927 c 0.70227,0 1.2725,-0.57135 1.2725,-1.27117 v -82.82796 c 0,-0.69992 -0.57023,-1.27126 -1.2725,-1.27126 z m 71.30433,111.47049 h -44.83657 c -3.42114,0 -6.20261,-2.78448 -6.20261,-6.19972 V 256.5841 c 0,-0.70406 -0.56968,-1.27121 -1.27249,-1.27121 h -18.99271 c -3.42116,0 -6.20063,-2.78445 -6.20063,-6.19964 v -82.82794 c 0,-3.41513 2.77947,-6.19954 6.20063,-6.19954 h 97.76866 c 3.42066,0 6.20062,2.78441 6.20062,6.19954 v 82.82794 c 0,3.41519 -2.77996,6.19964 -6.20062,6.19964 h -18.99269 c -0.70283,0 -1.27296,0.56715 -1.27296,1.27121 v 13.70035 c 0,3.41524 -2.78144,6.19972 -6.19864,6.19972"
       style="fill:#151933;fill-opacity:1;fill-rule:nonzero;stroke:none;stroke-width:0.492817" />
    <path
       id="path277"
       d="m 322.05785,121.09858 c -2.81843,0 -5.11106,2.29159 -5.11106,5.11048 0,2.82398 2.29263,5.11553 5.11106,5.11553 2.82038,0 5.11297,-2.29155 5.11297,-5.11553 0,-2.81889 -2.29259,-5.11048 -5.11297,-5.11048 z m 0,15.1541 c -5.53484,0 -10.03923,-4.50419 -10.03923,-10.04362 0,-5.53433 4.50439,-10.03852 10.03923,-10.03852 5.53629,0 10.04114,4.50419 10.04114,10.03852 0,5.53943 -4.50485,10.04362 -10.04114,10.04362"
       style="fill:#151933;fill-opacity:1;fill-rule:nonzero;stroke:none;stroke-width:0.492817" />
    <path
       id="path278"
       d="m 140.37362,121.09858 c -2.81646,0 -5.11101,2.29159 -5.11101,5.11048 0,2.82398 2.29455,5.11553 5.11101,5.11553 2.81841,0 5.11298,-2.29155 5.11298,-5.11553 0,-2.81889 -2.29457,-5.11048 -5.11298,-5.11048 z m 0,15.1541 c -5.53484,0 -10.0392,-4.50419 -10.0392,-10.04362 0,-5.53433 4.50436,-10.03852 10.0392,-10.03852 5.53435,0 10.04116,4.50419 10.04116,10.03852 0,5.53943 -4.50681,10.04362 -10.04116,10.04362"
       style="fill:#151933;fill-opacity:1;fill-rule:nonzero;stroke:none;stroke-width:0.492817" />
    <path
       id="path279"
       d="m 320.22112,307.56113 c -2.81797,0 -5.11106,2.29172 -5.11106,5.11055 0,2.81893 2.29309,5.11555 5.11106,5.11555 2.81841,0 5.11099,-2.29662 5.11099,-5.11555 0,-2.81883 -2.29258,-5.11055 -5.11099,-5.11055 z m 0,15.15427 c -5.53441,0 -10.03924,-4.50438 -10.03924,-10.04372 0,-5.5344 4.50483,-10.03859 10.03924,-10.03859 5.53483,0 10.03916,4.50419 10.03916,10.03859 0,5.53934 -4.50433,10.04372 -10.03916,10.04372"
       style="fill:#151933;fill-opacity:1;fill-rule:nonzero;stroke:none;stroke-width:0.492817" />
    <path
       id="path280"
       d="m 138.53885,307.56113 c -2.82039,0 -5.11495,2.29172 -5.11495,5.11055 0,2.81893 2.29456,5.11555 5.11495,5.11555 2.81843,0 5.11102,-2.29662 5.11102,-5.11555 0,-2.81883 -2.29259,-5.11055 -5.11102,-5.11055 z m 0,15.15427 c -5.53631,0 -10.04312,-4.50438 -10.04312,-10.04372 0,-5.5344 4.50681,-10.03859 10.04312,-10.03859 5.53484,0 10.03919,4.50419 10.03919,10.03859 0,5.53934 -4.50435,10.04372 -10.03919,10.04372"
       style="fill:#151933;fill-opacity:1;fill-rule:nonzero;stroke:none;stroke-width:0.492817" />
    <path
       id="path281"
       d="m 187.77628,181.79905 c -1.36063,0 -2.46408,-1.09942 -2.46408,-2.4641 v -15.72089 c 0,-1.36066 1.10346,-2.46408 2.46408,-2.46408 1.36316,0 2.46408,1.1036 2.46408,2.46408 v 15.72089 c 0,1.36481 -1.10093,2.4641 -2.46408,2.4641"
       style="fill:#151933;fill-opacity:1;fill-rule:nonzero;stroke:none;stroke-width:0.492817" />
    <path
       id="path282"
       d="m 208.83292,181.79905 c -1.36316,0 -2.46409,-1.09942 -2.46409,-2.4641 v -15.72089 c 0,-1.36066 1.10093,-2.46408 2.46409,-2.46408 1.36121,0 2.46408,1.1036 2.46408,2.46408 v 15.72089 c 0,1.36481 -1.1029,2.4641 -2.46408,2.4641"
       style="fill:#151933;fill-opacity:1;fill-rule:nonzero;stroke:none;stroke-width:0.492817" />
    <path
       id="path283"
       d="m 229.88907,181.79905 c -1.36065,0 -2.4641,-1.09942 -2.4641,-2.4641 v -15.72089 c 0,-1.36066 1.10346,-2.46408 2.4641,-2.46408 1.36315,0 2.46408,1.1036 2.46408,2.46408 v 15.72089 c 0,1.36481 -1.10095,2.4641 -2.46408,2.4641"
       style="fill:#151933;fill-opacity:1;fill-rule:nonzero;stroke:none;stroke-width:0.492817" />
    <path
       id="path284"
       d="m 250.94568,181.79905 c -1.36316,0 -2.46408,-1.09942 -2.46408,-2.4641 v -15.72089 c 0,-1.36066 1.10095,-2.46408 2.46408,-2.46408 1.3612,0 2.46409,1.1036 2.46409,2.46408 v 15.72089 c 0,1.36481 -1.1029,2.4641 -2.46409,2.4641"
       style="fill:#151933;fill-opacity:1;fill-rule:nonzero;stroke:none;stroke-width:0.492817" />
    <path
       id="path285"
       d="m 272.00035,181.79905 c -1.36118,0 -2.46411,-1.09942 -2.46411,-2.4641 v -15.72089 c 0,-1.36066 1.10293,-2.46408 2.46411,-2.46408 1.36259,0 2.46406,1.1036 2.46406,2.46408 v 15.72089 c 0,1.36481 -1.10147,2.4641 -2.46406,2.4641"
       style="fill:#151933;fill-opacity:1;fill-rule:nonzero;stroke:none;stroke-width:0.492817" />
    <path
       id="path286"
       d="m 754.33057,733.72539 c -0.34526,0 -0.69564,-0.0702 -1.02534,-0.22622 -17.3127,-7.969 -28.49468,-25.42955 -28.49468,-44.47687 0,-26.99172 21.95489,-48.94663 48.94164,-48.94663 26.98684,0 48.94176,21.95491 48.94176,48.94663 0,1.3607 -1.10362,2.46413 -2.46406,2.46413 -1.36071,0 -2.46413,-1.10361 -2.46413,-2.46413 0,-24.27127 -19.7423,-44.01845 -44.01357,-44.01845 -24.27125,0 -44.01347,19.74718 -44.01347,44.01845 0,17.13026 10.0583,32.83149 25.6265,40.00195 1.23629,0.56715 1.77899,2.03537 1.20695,3.26751 -0.41367,0.90101 -1.30615,1.43399 -2.24224,1.43399"
       style="fill:#151933;fill-opacity:1;fill-rule:nonzero;stroke:none;stroke-width:0.492817" />
    <path
       id="path287"
       d="m 820.69338,692.46188 c -0.50293,0 -1.00582,-0.14823 -1.43897,-0.45805 l -10.71878,-7.6978 c -1.10361,-0.79347 -1.36067,-2.33603 -0.56159,-3.43991 0.78785,-1.10921 2.32608,-1.36066 3.43497,-0.56715 l 8.9397,6.4165 7.41693,-8.1414 c 0.91645,-1.00581 2.47887,-1.08399 3.47926,-0.16784 1.01003,0.91638 1.07985,2.47399 0.16238,3.47922 l -8.89528,9.77261 c -0.48327,0.53213 -1.14834,0.80328 -1.81862,0.80328"
       style="fill:#151933;fill-opacity:1;fill-rule:nonzero;stroke:none;stroke-width:0.492817" />
    <path
       id="path288"
       d="m 774.07274,688.06587 c -1.36062,0 -2.46395,-1.10361 -2.46395,-2.46404 V 661.6212 c 0,-1.36481 1.1036,-2.46405 2.46395,-2.46405 1.36486,0 2.46412,1.0994 2.46412,2.46405 v 23.98063 c 0,1.36062 -1.0994,2.46404 -2.46412,2.46404"
       style="fill:#151933;fill-opacity:1;fill-rule:nonzero;stroke:none;stroke-width:0.492817" />
    <path
       id="path289"
       d="m 801.23705,697.41956 h -19.20028 c -1.36068,0 -2.46414,-1.09946 -2.46414,-2.46412 0,-1.36062 1.10361,-2.4641 2.46414,-2.4641 h 19.20028 c 1.36061,0 2.46391,1.10361 2.46391,2.4641 0,1.36484 -1.10358,2.46412 -2.46391,2.46412"
       style="fill:#151933;fill-opacity:1;fill-rule:nonzero;stroke:none;stroke-width:0.492817" />
    <path
       id="path290"
       d="m 774.07274,689.45559 c -3.03069,0 -5.49979,2.46897 -5.49979,5.49985 0,3.03574 2.4691,5.49984 5.49979,5.49984 3.03087,0 5.49989,-2.4641 5.49989,-5.49984 0,-3.03088 -2.46902,-5.49985 -5.49989,-5.49985 z m 0,15.92792 c -5.74609,0 -10.42789,-4.67689 -10.42789,-10.42807 0,-5.75115 4.6818,-10.42802 10.42789,-10.42802 5.75138,0 10.42811,4.67687 10.42811,10.42802 0,5.75118 -4.67673,10.42807 -10.42811,10.42807"
       style="fill:#151933;fill-opacity:1;fill-rule:nonzero;stroke:none;stroke-width:0.492817" />
    <path
       id="path291"
       d="m 382.22595,716.13188 h -66.02627 c -1.36119,0 -2.46405,-1.09941 -2.46405,-2.46409 0,-1.36062 1.10286,-2.46414 2.46405,-2.46414 h 66.02627 c 1.36066,0 2.46409,1.10361 2.46409,2.46414 0,1.36481 -1.10343,2.46409 -2.46409,2.46409"
       style="fill:#151933;fill-opacity:1;fill-rule:nonzero;stroke:none;stroke-width:0.492817" />
    <path
       id="path292"
       d="m 278.91901,716.13188 h -66.05336 c -1.36261,0 -2.4641,-1.09941 -2.4641,-2.46409 0,-1.36062 1.10151,-2.46414 2.4641,-2.46414 h 66.05336 c 1.3626,0 2.46412,1.10361 2.46412,2.46414 0,1.36481 -1.10152,2.46409 -2.46412,2.46409"
       style="fill:#151933;fill-opacity:1;fill-rule:nonzero;stroke:none;stroke-width:0.492817" />
    <path
       id="path293"
       d="m 296.7856,699.5091 c -1.36119,0 -2.46405,-1.10359 -2.46405,-2.46408 v -89.30847 c 0,-1.36064 1.10286,-2.4641 2.46405,-2.4641 1.36265,0 2.46412,1.10361 2.46412,2.4641 v 89.30847 c 0,1.36065 -1.10152,2.46408 -2.46412,2.46408"
       style="fill:#151933;fill-opacity:1;fill-rule:nonzero;stroke:none;stroke-width:0.492817" />
    <path
       id="path294"
       d="m 286.19348,702.99817 c -0.6564,0 -1.31482,-0.26088 -1.79777,-0.77809 L 244.60263,659.7637 c -0.93192,-0.9905 -0.88164,-2.5527 0.11313,-3.48418 0.99351,-0.92618 2.5587,-0.8829 3.48273,0.11181 l 39.79307,42.45637 c 0.92998,0.99606 0.8797,2.55271 -0.11459,3.4842 -0.47374,0.44423 -1.07969,0.66493 -1.68445,0.66493"
       style="fill:#151933;fill-opacity:1;fill-rule:nonzero;stroke:none;stroke-width:0.492817" />
    <path
       id="path295"
       d="m 244.77412,639.28185 c -0.56029,0 -1.12665,-0.18747 -1.58836,-0.58116 -1.03933,-0.87734 -1.17036,-2.42965 -0.29276,-3.46936 l 32.15239,-38.06046 c 0.87426,-1.03934 2.42764,-1.17763 3.47095,-0.29645 1.03989,0.88149 1.17035,2.43448 0.29299,3.47441 l -32.15043,38.06028 c -0.48738,0.57692 -1.18224,0.87169 -1.88453,0.87169"
       style="fill:#151933;fill-opacity:1;fill-rule:nonzero;stroke:none;stroke-width:0.492817" />
    <path
       id="path296"
       d="m 194.66441,698.60235 c -0.56229,0 -1.1261,-0.18745 -1.58835,-0.58111 -1.03934,-0.87734 -1.17052,-2.43452 -0.29277,-3.47442 l 32.17756,-38.08989 c 0.87422,-1.04495 2.42958,-1.17347 3.47287,-0.29052 1.03991,0.8773 1.17052,2.4296 0.29071,3.46937 l -32.17755,38.09493 c -0.48487,0.57696 -1.17974,0.87173 -1.88256,0.87173"
       style="fill:#151933;fill-opacity:1;fill-rule:nonzero;stroke:none;stroke-width:0.492817" />
    <path
       id="path297"
       d="m 193.43631,698.60235 c -8.51689,0 -15.44296,6.92896 -15.44296,15.44482 0,8.51594 6.92607,15.44495 15.44296,15.44495 8.51638,0 15.44638,-6.92901 15.44638,-15.44495 0,-8.51586 -6.93,-15.44482 -15.44638,-15.44482 z m 0,35.81804 c -11.23281,0 -20.37113,-9.13688 -20.37113,-20.37322 0,-11.2313 9.13832,-20.37304 20.37113,-20.37304 11.23476,0 20.37456,9.14174 20.37456,20.37304 0,11.23634 -9.1398,20.37322 -20.37456,20.37322"
       style="fill:#151933;fill-opacity:1;fill-rule:nonzero;stroke:none;stroke-width:0.492817" />
    <path
       id="path298"
       d="m 351.4017,640.11961 c -0.70872,0 -1.40947,-0.30012 -1.89837,-0.88711 l -33.41158,-40.09569 c -0.86971,-1.04486 -0.72736,-2.60196 0.31602,-3.47438 1.04926,-0.86749 2.60061,-0.72496 3.47292,0.31562 l 33.41158,40.10057 c 0.86987,1.04486 0.72937,2.59717 -0.31603,3.46944 -0.46196,0.38404 -1.02019,0.5714 -1.57454,0.5714"
       style="fill:#151933;fill-opacity:1;fill-rule:nonzero;stroke:none;stroke-width:0.492817" />
    <path
       id="path299"
       d="m 400.13645,698.60235 c -0.70827,0 -1.40701,-0.3001 -1.89589,-0.8871 L 365.9206,658.93056 c -0.87227,-1.04495 -0.72992,-2.60215 0.3155,-3.4695 1.04925,-0.86753 2.59714,-0.72924 3.47093,0.31562 l 32.31993,38.78474 c 0.87227,1.0449 0.72992,2.60209 -0.31563,3.4693 -0.46251,0.38405 -1.02064,0.57141 -1.57507,0.57141"
       style="fill:#151933;fill-opacity:1;fill-rule:nonzero;stroke:none;stroke-width:0.492817" />
    <path
       id="path300"
       d="m 307.40781,702.99817 c -0.63321,0 -1.26453,-0.24172 -1.74799,-0.72505 -0.95861,-0.96527 -0.95458,-2.52821 0.012,-3.48428 l 42.73076,-42.49076 c 0.96254,-0.96108 2.52176,-0.95551 3.48424,0.009 0.96053,0.96532 0.95508,2.52321 -0.012,3.48415 l -42.73272,42.49081 c -0.4816,0.47767 -1.10876,0.71383 -1.73671,0.71383"
       style="fill:#151933;fill-opacity:1;fill-rule:nonzero;stroke:none;stroke-width:0.492817" />
    <path
       id="path301"
       d="m 236.75992,638.67566 c -5.47866,0 -9.93718,4.45995 -9.93718,9.94013 0,5.47527 4.45852,9.93521 9.93718,9.93521 5.48063,0 9.93915,-4.45994 9.93915,-9.93521 0,-5.48018 -4.45852,-9.94013 -9.93915,-9.94013 z m 0,24.80356 c -8.199,0 -14.86537,-6.66785 -14.86537,-14.86343 0,-8.2005 6.66637,-14.86836 14.86537,-14.86836 8.19901,0 14.86732,6.66786 14.86732,14.86836 0,8.19558 -6.66831,14.86343 -14.86732,14.86343"
       style="fill:#151933;fill-opacity:1;fill-rule:nonzero;stroke:none;stroke-width:0.492817" />
    <path
       id="path302"
       d="m 359.99296,637.80337 c -5.47865,0 -9.93718,4.45511 -9.93718,9.93522 0,5.48018 4.45853,9.94013 9.93718,9.94013 5.47916,0 9.93915,-4.45995 9.93915,-9.94013 0,-5.48011 -4.45999,-9.93522 -9.93915,-9.93522 z m 0,24.80358 c -8.1985,0 -14.86536,-6.66786 -14.86536,-14.86836 0,-8.19555 6.66686,-14.86339 14.86536,-14.86339 8.19901,0 14.86732,6.66784 14.86732,14.86339 0,8.2005 -6.66831,14.86836 -14.86732,14.86836"
       style="fill:#151933;fill-opacity:1;fill-rule:nonzero;stroke:none;stroke-width:0.492817" />
    <path
       id="path303"
       d="m 296.7856,547.10021 c -15.57205,0 -28.24486,12.67536 -28.24486,28.24829 0,15.57307 12.67281,28.24343 28.24486,28.24343 15.57357,0 28.24441,-12.67036 28.24441,-28.24343 0,-15.57293 -12.67084,-28.24829 -28.24441,-28.24829 z m 0,61.4199 c -18.2924,0 -33.17303,-14.88309 -33.17303,-33.17161 0,-18.29337 14.88063,-33.17647 33.17303,-33.17647 18.29196,0 33.17259,14.8831 33.17259,33.17647 0,18.28852 -14.88063,33.17161 -33.17259,33.17161"
       style="fill:#151933;fill-opacity:1;fill-rule:nonzero;stroke:none;stroke-width:0.492817" />
    <path
       id="path304"
       d="m 400.13298,698.60235 c -8.51493,0 -15.44294,6.92896 -15.44294,15.44482 0,8.51594 6.92801,15.44495 15.44294,15.44495 8.51636,0 15.4444,-6.92901 15.4444,-15.44495 0,-8.51586 -6.92804,-15.44482 -15.4444,-15.44482 z m 0,35.81804 c -11.23279,0 -20.37111,-9.13688 -20.37111,-20.37322 0,-11.2313 9.13832,-20.37304 20.37111,-20.37304 11.23279,0 20.37263,9.14174 20.37263,20.37304 0,11.23634 -9.13984,20.37322 -20.37263,20.37322"
       style="fill:#151933;fill-opacity:1;fill-rule:nonzero;stroke:none;stroke-width:0.492817" />
    <path
       id="path305"
       d="m 296.7856,699.5091 c -8.51486,0 -15.44289,6.92405 -15.44289,15.44 0,8.51589 6.92803,15.44494 15.44289,15.44494 8.51643,0 15.44446,-6.92905 15.44446,-15.44494 0,-8.51595 -6.92803,-15.44 -15.44446,-15.44 z m 0,35.81303 c -11.23275,0 -20.37106,-9.13687 -20.37106,-20.37303 0,-11.23134 9.13831,-20.36817 20.37106,-20.36817 11.23281,0 20.37265,9.13683 20.37265,20.36817 0,11.23616 -9.13984,20.37303 -20.37265,20.37303"
       style="fill:#151933;fill-opacity:1;fill-rule:nonzero;stroke:none;stroke-width:0.492817" />
    <path
       id="path306"
       d="m 78.557514,364.80695 c -4.662551,0 -8.454791,3.79469 -8.454791,8.45674 0,4.66213 3.79224,8.45177 8.454791,8.45177 4.664514,0 8.45674,-3.78964 8.45674,-8.45177 0,-4.66205 -3.792226,-8.45674 -8.45674,-8.45674 z m 0,21.83677 c -7.380441,0 -13.382977,-6.0025 -13.382977,-13.38003 0,-7.37754 6.002536,-13.38501 13.382977,-13.38501 7.380921,0 13.38492,6.00747 13.38492,13.38501 0,7.37753 -6.003999,13.38003 -13.38492,13.38003"
       style="fill:#5bc134;fill-opacity:1;fill-rule:nonzero;stroke:none;stroke-width:0.492817" />
    <path
       id="path307"
       d="m 871.12841,491.86036 c -4.66213,0 -8.45176,3.79456 -8.45176,8.45666 0,4.66203 3.78963,8.45678 8.45176,8.45678 4.66205,0 8.45675,-3.79475 8.45675,-8.45678 0,-4.6621 -3.7947,-8.45666 -8.45675,-8.45666 z m 0,21.84166 c -7.37753,0 -13.38002,-6.00747 -13.38002,-13.385 0,-7.37754 6.00249,-13.38487 13.38002,-13.38487 7.38233,0 13.38483,6.00733 13.38483,13.38487 0,7.37753 -6.0025,13.385 -13.38483,13.385"
       style="fill:#5bc134;fill-opacity:1;fill-rule:nonzero;stroke:none;stroke-width:0.492817" />
    <path
       id="path308"
       d="m 780.12468,131.635 c -4.66205,0 -8.45679,3.79475 -8.45679,8.45196 0,4.66693 3.79474,8.45665 8.45679,8.45665 4.662,0 8.45669,-3.78972 8.45669,-8.45665 0,-4.65721 -3.79469,-8.45196 -8.45669,-8.45196 z m 0,21.83678 c -7.37748,0 -13.385,-6.00246 -13.385,-13.38482 0,-7.37754 6.00752,-13.38013 13.385,-13.38013 7.3774,0 13.38487,6.00259 13.38487,13.38013 0,7.38236 -6.00747,13.38482 -13.38487,13.38482"
       style="fill:#5bc134;fill-opacity:1;fill-rule:nonzero;stroke:none;stroke-width:0.492817" />
    <path
       id="path309"
       d="m 668.98436,736.85483 c -1.89247,0 -3.7848,0.71944 -5.22383,2.1585 l -11.76355,11.76369 c -2.88306,2.88292 -2.88306,7.56954 0,10.45265 l 11.76355,11.7635 c 2.79421,2.79426 7.66825,2.78937 10.45266,0 l 11.76354,-11.7635 c 1.39414,-1.3942 2.16348,-3.25272 2.16348,-5.224 0,-1.97612 -0.76829,-3.83406 -2.16348,-5.22865 l -11.76354,-11.76369 c -1.43903,-1.43906 -3.33149,-2.1585 -5.22883,-2.1585 z m 0,43.22991 c -3.29214,0 -6.38203,-1.281 -8.70815,-3.60733 l -11.7635,-11.76361 c -4.79997,-4.79995 -4.79997,-12.61613 0,-17.42106 l 11.7635,-11.76359 c 4.80015,-4.79997 12.61613,-4.79997 17.42604,0 l 11.75862,11.76359 c 2.32613,2.32603 3.60752,5.42098 3.60752,8.71293 0,3.29213 -1.28094,6.38206 -3.60752,8.70813 l -11.75862,11.76361 c -2.33095,2.32607 -5.42577,3.60733 -8.71789,3.60733"
       style="fill:#5bc134;fill-opacity:1;fill-rule:nonzero;stroke:none;stroke-width:0.492817" />
    <path
       id="path310"
       d="m 120.02171,611.2355 c -1.97521,0 -3.83115,0.76833 -5.22682,2.16836 l -11.76208,11.75871 c -2.87953,2.88301 -2.87953,7.56973 0,10.45266 l 11.76208,11.7635 c 2.79182,2.78945 7.66185,2.78945 10.45315,0 l 11.76259,-11.7635 c 2.8815,-2.88293 2.8815,-7.56965 0,-10.45266 l -11.76259,-11.75871 c -1.39569,-1.39948 -3.2511,-2.16836 -5.22633,-2.16836 z m 0,43.23497 c -3.29201,0 -6.38543,-1.28108 -8.71104,-3.60742 L 99.548579,639.09951 c -4.801022,-4.80011 -4.801022,-12.62115 0,-17.42112 l 11.762091,-11.76356 c 4.64925,-4.65215 12.77286,-4.65215 17.4221,0 l 11.76209,11.76356 c 4.80299,4.79997 4.80299,12.62101 0,17.42112 l -11.76209,11.76354 c -2.32365,2.32608 -5.41903,3.60742 -8.71106,3.60742"
       style="fill:#5bc134;fill-opacity:1;fill-rule:nonzero;stroke:none;stroke-width:0.492817" />
    <path
       id="path311"
       d="m 863.1201,555.00995 c -1.97625,0 -3.82917,0.76834 -5.22878,2.16348 l -11.75866,11.7636 c -2.88293,2.88301 -2.88293,7.56973 0,10.45265 l 11.75866,11.75863 c 2.79421,2.7942 7.66332,2.7942 10.45752,0 l 11.75868,-11.75863 c 2.88306,-2.88292 2.88306,-7.56964 0,-10.45265 l -11.75868,-11.7636 c -1.39961,-1.39414 -3.25253,-2.16348 -5.22874,-2.16348 z m 0,43.23492 c -3.29202,0 -6.38685,-1.28103 -8.71293,-3.61238 l -11.7587,-11.75854 c -4.80006,-4.8001 -4.80006,-12.62114 0,-17.42111 l 11.7587,-11.76355 c 4.65211,-4.65234 12.77386,-4.65234 17.42595,0 l 11.75872,11.76355 c 4.80484,4.79997 4.80484,12.62101 0,17.42111 l -11.75872,11.75854 c -2.32607,2.33109 -5.42098,3.61238 -8.71302,3.61238"
       style="fill:#5bc134;fill-opacity:1;fill-rule:nonzero;stroke:none;stroke-width:0.492817" />
    <path
       id="path312"
       d="m 50.44766,505.90557 c -0.52932,0 -1.064481,-0.16785 -1.512939,-0.51695 L 24.291806,486.154 c -0.610197,-0.47771 -0.962511,-1.21257 -0.947145,-1.98605 0.01368,-0.77395 0.392697,-1.49827 1.018387,-1.95159 l 24.640685,-17.84007 c 1.103461,-0.79766 2.647423,-0.55173 3.440372,0.55179 0.798783,1.1036 0.554469,2.64154 -0.548574,3.4399 l -21.986419,15.91809 22.055416,17.21409 c 1.07441,0.84241 1.265092,2.38518 0.427314,3.45961 -0.486824,0.62585 -1.210891,0.94574 -1.944169,0.94574"
       style="fill:#151933;fill-opacity:1;fill-rule:nonzero;stroke:none;stroke-width:0.492817" />
    <path
       id="path313"
       d="m 829.58879,354.23589 c 4.42059,0 8.00333,3.58285 8.00333,8.00344 0,4.42068 -3.58274,8.00333 -8.00333,8.00333 -4.42068,0 -8.00335,-3.58265 -8.00335,-8.00333 0,-4.42059 3.58267,-8.00344 8.00335,-8.00344"
       style="fill:#151933;fill-opacity:1;fill-rule:nonzero;stroke:none;stroke-width:0.492817" />
    <path
       id="path314"
       d="m 38.129189,307.40847 c 4.420079,0 8.002385,3.58279 8.002385,8.00333 0,4.42055 -3.582306,8.00335 -8.002385,8.00335 -4.420075,0 -8.002476,-3.5828 -8.002476,-8.00335 0,-4.42054 3.582401,-8.00333 8.002476,-8.00333"
       style="fill:#151933;fill-opacity:1;fill-rule:nonzero;stroke:none;stroke-width:0.492817" />
    <path
       id="path315"
       d="m 536.43113,109.60116 c 4.4206,0 8.00335,3.58279 8.00335,8.00333 0,4.42073 -3.58275,8.00334 -8.00335,8.00334 -4.41566,0 -7.99846,-3.58261 -7.99846,-8.00334 0,-4.42054 3.5828,-8.00333 7.99846,-8.00333"
       style="fill:#151933;fill-opacity:1;fill-rule:nonzero;stroke:none;stroke-width:0.492817" />
    <path
       id="path316"
       d="m 256.29719,414.7885 c 4.42006,0 8.00289,3.58274 8.00289,7.99845 0,4.4205 -3.58283,8.00334 -8.00289,8.00334 -4.4176,0 -8.0004,-3.58284 -8.0004,-8.00334 0,-4.41571 3.5828,-7.99845 8.0004,-7.99845"
       style="fill:#151933;fill-opacity:1;fill-rule:nonzero;stroke:none;stroke-width:0.492817" />
    <path
       id="path317"
       d="m 166.5659,761.97379 c 4.42009,0 8.00287,3.58283 8.00287,8.00333 0,4.4157 -3.58278,7.99846 -8.00287,7.99846 -4.41812,0 -8.0004,-3.58276 -8.0004,-7.99846 0,-4.4205 3.58228,-8.00333 8.0004,-8.00333"
       style="fill:#151933;fill-opacity:1;fill-rule:nonzero;stroke:none;stroke-width:0.492817" />
    <path
       id="path363"
       d="m 195.50761,445.10659 c -0.48543,0 -0.97829,-0.14824 -1.40748,-0.44287 L 178.8208,433.99917 c -1.11616,-0.7837 -1.3897,-2.31617 -0.612,-3.42995 0.77574,-1.11898 2.31574,-1.39419 3.43247,-0.61609 l 15.27932,10.66459 c 1.11675,0.78371 1.38775,2.31632 0.61215,3.43498 -0.47901,0.6845 -1.24734,1.05467 -2.02498,1.05467"
       style="fill:#151933;fill-opacity:1;fill-rule:nonzero;stroke:none;stroke-width:0.492817" />
    <path
       id="path364"
       d="m 170.81252,421.82596 c -1.3626,0 -2.46409,-1.1036 -2.46409,-2.46414 v -16.42564 c 0,-1.3606 1.1015,-2.46408 2.46409,-2.46408 1.36119,0 2.46408,1.10361 2.46408,2.46408 v 16.42564 c 0,1.36067 -1.1029,2.46414 -2.46408,2.46414"
       style="fill:#151933;fill-opacity:1;fill-rule:nonzero;stroke:none;stroke-width:0.492817" />
    <path
       id="path365"
       d="m 146.11592,445.10659 c -0.77768,0 -1.54596,-0.37034 -2.02301,-1.05471 -0.77769,-1.11889 -0.50669,-2.65141 0.61006,-3.43497 l 15.28129,-10.66456 c 1.11632,-0.7739 2.65629,-0.49732 3.43051,0.61608 0.77768,1.11338 0.50614,2.64641 -0.61062,3.42997 l -15.2808,10.66455 c -0.42776,0.29645 -0.92199,0.44286 -1.40749,0.44286"
       style="fill:#151933;fill-opacity:1;fill-rule:nonzero;stroke:none;stroke-width:0.492817" />
    <path
       id="path372"
       d="m 561.55995,741.14228 c -1.36513,0 -2.46414,-1.1036 -2.46414,-2.46395 V 714.0374 c 0,-1.36061 1.09901,-2.46413 2.46414,-2.46413 1.3602,0 2.46404,1.10361 2.46404,2.46413 v 24.64093 c 0,1.36062 -1.10388,2.46395 -2.46404,2.46395 z m -269.70247,34.20666 c -1.36124,0 -2.46411,-1.10361 -2.46411,-2.46414 v -24.64091 c 0,-1.36487 1.10292,-2.4641 2.46411,-2.4641 1.3626,0 2.46407,1.09941 2.46407,2.4641 v 24.64091 c 0,1.36062 -1.10152,2.46414 -2.46407,2.46414 z m 41.06944,8.21023 h -24.64088 c -1.36118,0 -2.46411,-1.09947 -2.46411,-2.46415 0,-1.36061 1.10293,-2.46394 2.46411,-2.46394 h 24.64088 c 1.36258,0 2.46407,1.1036 2.46407,2.46394 0,1.36486 -1.10149,2.46415 -2.46407,2.46415 z m 49.28183,0 h -24.64096 c -1.36117,0 -2.46405,-1.09947 -2.46405,-2.46415 0,-1.36061 1.10288,-2.46394 2.46405,-2.46394 h 24.64096 c 1.36258,0 2.46404,1.1036 2.46404,2.46394 0,1.36486 -1.10151,2.46415 -2.46404,2.46415 z m 49.28171,0 h -24.64087 c -1.36116,0 -2.46409,-1.09947 -2.46409,-2.46415 0,-1.36061 1.10293,-2.46394 2.46409,-2.46394 h 24.64087 c 1.36264,0 2.46415,1.1036 2.46415,2.46394 0,1.36486 -1.10151,2.46415 -2.46415,2.46415 z m 49.28183,0 h -24.64084 c -1.36126,0 -2.46413,-1.09947 -2.46413,-2.46415 0,-1.36061 1.10292,-2.46394 2.46413,-2.46394 h 24.64084 c 1.36024,0 2.46408,1.1036 2.46408,2.46394 0,1.36486 -1.10388,2.46415 -2.46408,2.46415 z m 49.28175,0 h -24.64088 c -1.3602,0 -2.46404,-1.09947 -2.46404,-2.46415 0,-1.36061 1.10388,-2.46394 2.46404,-2.46394 h 24.64088 c 1.36026,0 2.46414,1.1036 2.46414,2.46394 0,1.36486 -1.10388,2.46415 -2.46414,2.46415 z m 31.50591,0 h -6.86494 c -1.36024,0 -2.46413,-1.09947 -2.46413,-2.46415 0,-1.36061 1.10389,-2.46394 2.46413,-2.46394 h 4.4008 v -15.31196 c 0,-1.36071 1.09901,-2.46405 2.46414,-2.46405 1.3602,0 2.46404,1.10362 2.46404,2.46405 v 17.7759 c 0,1.36486 -1.10388,2.46415 -2.46404,2.46415"
       style="fill:#151933;fill-opacity:1;fill-rule:nonzero;stroke:none;stroke-width:0.492817" />
    <path
       id="path373"
       d="m 389.59116,178.11271 h -24.64095 c -1.36119,0 -2.46406,-1.09937 -2.46406,-2.46409 0,-1.36061 1.10287,-2.46413 2.46406,-2.46413 h 24.64095 c 1.36313,0 2.46405,1.10361 2.46405,2.46413 0,1.36481 -1.10096,2.46409 -2.46405,2.46409 z m 49.28173,0 H 414.232 c -1.36116,0 -2.46408,-1.09937 -2.46408,-2.46409 0,-1.36061 1.10292,-2.46413 2.46408,-2.46413 h 24.64089 c 1.36317,0 2.46414,1.10361 2.46414,2.46413 0,1.36481 -1.10097,2.46409 -2.46414,2.46409 z m 49.28181,0 h -24.64093 c -1.36116,0 -2.46405,-1.09937 -2.46405,-2.46409 0,-1.36061 1.10293,-2.46413 2.46405,-2.46413 h 24.64093 c 1.36024,0 2.46408,1.10361 2.46408,2.46413 0,1.36481 -1.10388,2.46409 -2.46408,2.46409 z m 49.28175,0 h -24.64088 c -1.3602,0 -2.46403,-1.09937 -2.46403,-2.46409 0,-1.36061 1.10383,-2.46413 2.46403,-2.46413 h 24.64088 c 1.36026,0 2.46413,1.10361 2.46413,2.46413 0,1.36481 -1.10387,2.46409 -2.46413,2.46409 z m 25.88283,23.39903 c -1.36021,0 -2.46409,-1.09946 -2.46409,-2.46409 v -21.26013 c -0.73923,-0.42325 -1.2419,-1.22233 -1.2419,-2.1389 0,-1.36061 1.10389,-2.46413 2.46409,-2.46413 h 1.2419 c 1.3602,0 2.46409,1.10361 2.46409,2.46413 v 23.39903 c 0,1.36482 -1.10389,2.46409 -2.46409,2.46409"
       style="fill:#151933;fill-opacity:1;fill-rule:nonzero;stroke:none;stroke-width:0.492817" />
  </g>
</svg>
