<?xml version="1.0" encoding="UTF-8" standalone="no"?>
<svg
   width="240px"
   height="64px"
   viewBox="0 0 240 64"
   version="1.1"
   id="svg27"
   sodipodi:docname="logo.svg"
   inkscape:version="1.1.1 (3bf5ae0d25, 2021-09-20)"
   xmlns:inkscape="http://www.inkscape.org/namespaces/inkscape"
   xmlns:sodipodi="http://sodipodi.sourceforge.net/DTD/sodipodi-0.dtd"
   xmlns="http://www.w3.org/2000/svg"
   xmlns:svg="http://www.w3.org/2000/svg">
  <defs
     id="defs31">
    <rect
       x="0.896"
       y="61.024"
       width="238.96341"
       height="79.020485"
       id="rect6993" />
    <rect
       x="0.89600003"
       y="61.023998"
       width="238.96341"
       height="79.020485"
       id="rect6993-3" />
  </defs>
  <sodipodi:namedview
     id="namedview29"
     pagecolor="#ffffff"
     bordercolor="#666666"
     borderopacity="1.0"
     inkscape:pageshadow="2"
     inkscape:pageopacity="0.0"
     inkscape:pagecheckerboard="0"
     showgrid="false"
     inkscape:zoom="7.1125"
     inkscape:cx="120.42179"
     inkscape:cy="50.123023"
     inkscape:window-width="1920"
     inkscape:window-height="1001"
     inkscape:window-x="-9"
     inkscape:window-y="-9"
     inkscape:window-maximized="1"
     inkscape:current-layer="text6991-9" />
  <title
     id="title21">logo</title>
  <g
     aria-label="Jinicuil"
     transform="translate(3.2337435,-63.690685)"
     id="text6991"
     style="font-size:50.6667px;line-height:1.25;letter-spacing:0px;word-spacing:0px;white-space:pre;shape-inside:url(#rect6993);fill:#2f2f41">
    <path
       d="m 18.931652,77.610163 v 0.865886 q -2.325522,0.61849 -3.018231,1.385418 -0.667969,0.742188 -0.667969,3.364585 v 26.248718 q 0,4.35417 -2.201825,6.77865 -2.201824,2.44922 -6.2096389,2.44922 -3.1171895,0 -5.2695346,-1.70704 -2.15234506,-1.70703 -2.49869944,-4.47786 h 0.86588596 q 1.48437598,2.84505 4.40364858,2.84505 2.3502619,0 3.3398459,-1.60807 1.0143235,-1.58334 1.0143235,-5.44271 V 82.73126 q 0,-2.127605 -0.742188,-2.944012 -0.7174483,-0.816407 -3.0429706,-1.311199 v -0.865886 z"
       style="font-weight:bold;font-family:Perpetua;-inkscape-font-specification:'Perpetua Bold'"
       id="path93269" />
    <path
       d="m 30.534523,87.382305 h 0.865886 v 15.759125 q 0,2.86979 3.09245,3.24089 v 0.86588 H 22.469414 v -0.86588 q 1.929689,-0.3711 2.548179,-1.08855 0.643229,-0.71744 0.643229,-2.54817 V 92.552881 q 0,-1.756512 -0.667969,-2.44922 -0.667969,-0.692709 -2.770835,-1.088543 V 88.149232 Z M 25.21551,78.822403 q 0,-1.360677 0.964844,-2.325522 0.989584,-0.964844 2.375001,-0.964844 1.360678,0 2.325523,0.964844 0.964844,0.940105 0.964844,2.325522 0,1.385418 -0.964844,2.375002 -0.964845,0.964844 -2.325523,0.964844 -1.385417,0 -2.375001,-0.989584 -0.964844,-0.989584 -0.964844,-2.350262 z"
       style="font-weight:bold;font-family:Perpetua;-inkscape-font-specification:'Perpetua Bold'"
       id="path93271" />
    <path
       d="m 45.897813,87.382305 v 4.675784 h 0.09896 q 2.746095,-4.675784 7.248702,-4.675784 2.820314,0 4.750003,1.904949 1.929689,1.880209 1.929689,5.046878 v 8.361988 q 0,1.80599 0.643229,2.54818 0.64323,0.71744 2.350262,1.13802 v 0.86588 H 51.167348 v -0.86588 q 1.682292,-0.3711 2.350262,-1.11329 0.667969,-0.76692 0.667969,-2.32552 v -7.916669 q 0,-2.152345 -0.940105,-3.339846 -0.915365,-1.21224 -2.597658,-1.21224 -2.944012,0 -4.750003,3.339845 v 8.931 q 0,1.70703 0.593751,2.42448 0.59375,0.71744 2.226563,1.21224 v 0.86588 H 37.164735 v -0.86588 q 1.682292,-0.42058 2.325522,-1.13802 0.667969,-0.71745 0.667969,-2.15235 V 92.404443 q 0,-1.632813 -0.766927,-2.375001 -0.742188,-0.742188 -2.671877,-1.014324 v -0.865886 l 8.312505,-0.766927 z"
       style="font-weight:bold;font-family:Perpetua;-inkscape-font-specification:'Perpetua Bold'"
       id="path93273" />
    <path
       d="m 73.85356,87.382305 h 0.865886 v 15.759125 q 0,2.86979 3.09245,3.24089 v 0.86588 H 65.788451 v -0.86588 q 1.929688,-0.3711 2.548178,-1.08855 0.64323,-0.71744 0.64323,-2.54817 V 92.552881 q 0,-1.756512 -0.667969,-2.44922 -0.66797,-0.692709 -2.770835,-1.088543 v -0.865886 z m -5.319014,-8.559902 q 0,-1.360677 0.964844,-2.325522 0.989584,-0.964844 2.375002,-0.964844 1.360678,0 2.325522,0.964844 0.964845,0.940105 0.964845,2.325522 0,1.385418 -0.964845,2.375002 -0.964844,0.964844 -2.325522,0.964844 -1.385418,0 -2.375002,-0.989584 -0.964844,-0.989584 -0.964844,-2.350262 z"
       style="font-weight:bold;font-family:Perpetua;-inkscape-font-specification:'Perpetua Bold'"
       id="path93275" />
    <path
       d="m 100.96816,87.382305 0.44531,6.951827 h -0.86588 q -2.721358,-5.789066 -7.026048,-5.789066 -2.919273,0 -4.601566,2.276043 -1.682292,2.251303 -1.682292,6.1849 0,4.032551 1.85547,6.333341 1.880209,2.27604 5.170576,2.27604 2.152345,0 3.587242,-0.76693 1.459636,-0.79167 3.117188,-2.82031 h 1.01432 q -2.845049,5.98698 -10.291669,5.98698 -4.824221,0 -7.817713,-2.7461 -2.968752,-2.74609 -2.968752,-7.199219 0,-4.552086 3.265627,-7.619796 3.290367,-3.06771 8.188808,-3.06771 1.608074,0 3.760419,0.321614 1.85547,0.296876 2.523439,0.296876 0.766927,0 1.509111,-0.61849 z"
       style="font-weight:bold;font-family:Perpetua;-inkscape-font-specification:'Perpetua Bold'"
       id="path93277" />
    <path
       d="m 121.08146,103.33935 h -0.099 q -3.06771,4.67578 -7.59506,4.67578 -2.96875,0 -4.65104,-1.53386 -1.68229,-1.55859 -1.68229,-4.30469 v -9.871095 q 0,-1.583334 -0.64323,-2.276043 -0.64323,-0.717449 -2.35027,-1.014324 v -0.865886 l 7.8672,-0.766927 h 0.84114 v 14.101575 q 0,1.58333 0.94011,2.47396 0.9401,0.86588 2.62239,0.86588 1.45964,0 2.47396,-0.74219 1.03907,-0.76692 2.27605,-2.72135 v -9.524748 q 0,-2.300782 -2.99349,-2.820314 v -0.865886 l 7.86719,-0.766927 h 0.86588 v 15.214855 q 0,1.90495 0.56902,2.6224 0.56901,0.6927 2.47396,1.16276 v 0.86588 l -8.78256,0.76693 z"
       style="font-weight:bold;font-family:Perpetua;-inkscape-font-specification:'Perpetua Bold'"
       id="path93279" />
    <path
       d="m 140.94735,87.382305 h 0.86588 v 15.759125 q 0,2.86979 3.09245,3.24089 v 0.86588 h -12.02344 v -0.86588 q 1.92969,-0.3711 2.54818,-1.08855 0.64323,-0.71744 0.64323,-2.54817 V 92.552881 q 0,-1.756512 -0.66797,-2.44922 -0.66797,-0.692709 -2.77084,-1.088543 v -0.865886 z m -5.31902,-8.559902 q 0,-1.360677 0.96485,-2.325522 0.98958,-0.964844 2.375,-0.964844 1.36068,0 2.32552,0.964844 0.96485,0.940105 0.96485,2.325522 0,1.385418 -0.96485,2.375002 -0.96484,0.964844 -2.32552,0.964844 -1.38542,0 -2.375,-0.989584 -0.96485,-0.989584 -0.96485,-2.350262 z"
       style="font-weight:bold;font-family:Perpetua;-inkscape-font-specification:'Perpetua Bold'"
       id="path93281" />
    <path
       d="m 147.18173,107.2482 v -0.86588 q 2.05338,-0.32162 2.82031,-1.11329 0.76693,-0.8164 0.76693,-2.67187 V 80.752092 q 0,-2.053387 -0.79167,-2.869793 -0.76693,-0.841147 -2.79557,-0.940105 v -0.865886 l 8.46094,-0.544271 h 0.86589 v 27.065123 q 0,1.90495 0.61849,2.6224 0.64323,0.6927 2.77083,1.16276 v 0.86588 z"
       style="font-weight:bold;font-family:Perpetua;-inkscape-font-specification:'Perpetua Bold'"
       id="path93283" />
  </g>
  <g
     aria-label="CD"
     transform="translate(164.64924,-57.078466)"
     id="text6991-9"
     style="font-size:42.6667px;line-height:1.25;letter-spacing:0px;word-spacing:0px;white-space:pre;shape-inside:url(#rect6993-3);fill:#e5261f">
    <path
       d="m 18.875664,100.55373 q -3.458335,0 -6.395838,-1.020837 Q 9.5631575,98.512059 7.4589893,96.491224 5.354821,94.470389 4.1881535,91.449554 3.0423193,88.428718 3.0423193,84.470382 q 0,-3.687503 1.1041675,-6.687505 1.1041675,-3.000002 3.2083357,-5.145837 2.0208349,-2.062502 5.0000035,-3.187503 3.000002,-1.125001 6.541672,-1.125001 1.958335,0 3.520836,0.229167 1.583334,0.208334 2.916669,0.562501 1.395834,0.395833 2.520835,0.895834 1.145834,0.479167 2.000001,0.895834 v 7.520839 h -0.916667 q -0.583334,-0.500001 -1.479168,-1.187501 -0.875,-0.687501 -2.000001,-1.354168 -1.145835,-0.666667 -2.479169,-1.125001 -1.333334,-0.458333 -2.854169,-0.458333 -1.687501,0 -3.208335,0.541667 -1.520835,0.520833 -2.812502,1.750001 -1.229168,1.187501 -2.000002,3.145836 -0.75,1.958334 -0.75,4.750003 0,2.916669 0.8125,4.875004 0.833334,1.958335 2.083335,3.083335 1.270834,1.145835 2.833335,1.645835 1.562502,0.479167 3.083336,0.479167 1.458334,0 2.875002,-0.4375 1.437501,-0.437501 2.645836,-1.187501 1.020834,-0.604167 1.895834,-1.291668 0.875001,-0.6875 1.437501,-1.187501 h 0.833334 v 7.416672 q -1.166667,0.520834 -2.229168,0.979168 -1.062501,0.458334 -2.229168,0.791667 -1.520835,0.437497 -2.854169,0.666667 -1.333334,0.22917 -3.66667,0.22917 z"
       style="font-weight:bold;-inkscape-font-specification:'sans-serif Bold'"
       id="path94597" />
    <path
       d="m 65.042365,84.470382 q 0,4.333336 -1.979168,7.770839 -1.979168,3.416669 -5.000003,5.250004 -2.270836,1.375001 -4.979171,1.916668 -2.708335,0.541667 -6.416671,0.541667 H 35.729844 V 68.928704 h 11.250008 q 3.791669,0 6.541671,0.645833 2.750003,0.625001 4.625004,1.791668 3.208336,1.958335 5.04167,5.291671 1.854168,3.312502 1.854168,7.812506 z m -8.270839,-0.0625 q 0,-3.062503 -1.125001,-5.229171 -1.104167,-2.187501 -3.520836,-3.416669 -1.229167,-0.604167 -2.520835,-0.812501 -1.270834,-0.229166 -3.85417,-0.229166 H 43.72985 v 19.416681 h 2.020834 q 2.854169,0 4.187503,-0.250001 1.333335,-0.270833 2.604169,-0.958334 2.187502,-1.25 3.208336,-3.333335 1.020834,-2.104169 1.020834,-5.187504 z"
       style="font-weight:bold;-inkscape-font-specification:'sans-serif Bold'"
       id="path94599" />
  </g>
</svg>
