<?xml version="1.0" encoding="UTF-8" standalone="no"?>
<svg
   width="54px"
   height="54px"
   viewBox="0 0 54 54"
   version="1.1"
   id="svg9"
   sodipodi:docname="logo-mobile.svg"
   inkscape:version="1.1.1 (3bf5ae0d25, 2021-09-20)"
   xmlns:inkscape="http://www.inkscape.org/namespaces/inkscape"
   xmlns:sodipodi="http://sodipodi.sourceforge.net/DTD/sodipodi-0.dtd"
   xmlns="http://www.w3.org/2000/svg"
   xmlns:svg="http://www.w3.org/2000/svg">
  <defs
     id="defs13" />
  <sodipodi:namedview
     id="namedview11"
     pagecolor="#ffffff"
     bordercolor="#666666"
     borderopacity="1.0"
     inkscape:pageshadow="2"
     inkscape:pageopacity="0.0"
     inkscape:pagecheckerboard="0"
     showgrid="false"
     inkscape:zoom="15.037037"
     inkscape:cx="26.966749"
     inkscape:cy="27.033251"
     inkscape:window-width="1920"
     inkscape:window-height="1001"
     inkscape:window-x="-9"
     inkscape:window-y="-9"
     inkscape:window-maximized="1"
     inkscape:current-layer="logo-mobile" />
  <title
     id="title2">logo-mobile</title>
  <g
     id="Page-1"
     stroke="none"
     stroke-width="1"
     fill="none"
     fill-rule="evenodd">
    <g
       id="logo-mobile">
      <rect
         id="Rectangle-6"
         stroke="#E5261F"
         stroke-width="4"
         fill-rule="nonzero"
         x="2"
         y="2"
         width="50"
         height="50" />
      <path
         id="."
         fill="#E5261F"
         d="M34.402,41.895 C33.9259976,41.3769974 33.688,40.7400038 33.688,39.984 C33.688,39.2279962 33.9329975,38.5840027 34.423,38.052 C34.9130025,37.5199973 35.4939966,37.254 36.166,37.254 C36.8660035,37.254 37.4469977,37.5199973 37.909,38.052 C38.3710023,38.5840027 38.602,39.2279962 38.602,39.984 C38.602,40.7400038 38.3570024,41.3769974 37.867,41.895 C37.3769975,42.4130026 36.7960034,42.672 36.124,42.672 C35.4519966,42.672 34.8780024,42.4130026 34.402,41.895 Z" />
      <path
         d="m 28.194,12.096 v 0.645879 q -1.928495,0.461342 -2.50294,1.033407 -0.553929,0.553611 -0.553929,2.509703 v 19.579373 q 0,3.247851 -1.825917,5.056312 -1.825915,1.826916 -5.149492,1.826916 -2.585004,0 -4.369888,-1.273311 -1.784883,-1.273303 -2.072106,-3.340113 h 0.718057 q 1.230954,2.122172 3.651831,2.122172 1.949011,0 2.769647,-1.199487 0.841152,-1.181041 0.841152,-4.059812 V 15.915915 q 0,-1.587018 -0.615477,-2.19599 -0.594961,-0.608972 -2.523456,-0.978046 V 12.096 Z"
         style="font-weight:bold;font-size:50.6667px;line-height:1.25;font-family:Perpetua;-inkscape-font-specification:'Perpetua Bold';letter-spacing:0px;word-spacing:0px;white-space:pre;shape-inside:url(#rect6993);fill:#e5261f;stroke-width:0.786492;fill-opacity:1"
         id="path93269" />
    </g>
  </g>
</svg>
