<svg xmlns="http://www.w3.org/2000/svg" xmlns:xlink="http://www.w3.org/1999/xlink" width="50.685" height="30.411" viewBox="0 0 50.685 30.411">
  <defs>
    <clipPath id="clip-path">
      <path id="Path_4454" data-name="Path 4454" d="M6,4V34.411H56.685V4Z" transform="translate(-6 -4)" fill="none"/>
    </clipPath>
  </defs>
  <g id="AWS" transform="translate(0 0)" clip-path="url(#clip-path)">
    <path id="Path_4451" data-name="Path 4451" d="M87.652,15a4.774,4.774,0,0,0,.192,1.5,7.818,7.818,0,0,0,.547,1.209.788.788,0,0,1,.118.384.646.646,0,0,1-.325.5l-1.062.708a.84.84,0,0,1-.442.147.705.705,0,0,1-.5-.236,3.858,3.858,0,0,1-.606-.78q-.251-.427-.516-.988a6.23,6.23,0,0,1-4.955,2.33,4.607,4.607,0,0,1-3.362-1.209A4.328,4.328,0,0,1,75.5,15.321a4.335,4.335,0,0,1,1.533-3.464,6.14,6.14,0,0,1,4.129-1.312,12.662,12.662,0,0,1,1.785.133q.929.133,1.931.368V9.807a3.7,3.7,0,0,0-.8-2.7,3.869,3.869,0,0,0-2.741-.784,7.834,7.834,0,0,0-1.814.221,12.989,12.989,0,0,0-1.814.576,4.686,4.686,0,0,1-.59.221,1.211,1.211,0,0,1-.265.044q-.354,0-.354-.531V6.031a1.1,1.1,0,0,1,.118-.59,1.222,1.222,0,0,1,.472-.354,10.99,10.99,0,0,1,2.124-.766A10.329,10.329,0,0,1,81.841,4a6.107,6.107,0,0,1,4.41,1.372,5.56,5.56,0,0,1,1.4,4.144V15Zm-6.843,2.566a5.428,5.428,0,0,0,1.74-.31,3.677,3.677,0,0,0,1.593-1.077,2.658,2.658,0,0,0,.575-1.076,5.73,5.73,0,0,0,.162-1.46v-.708a14.6,14.6,0,0,0-1.549-.28,12.527,12.527,0,0,0-1.578-.1,3.894,3.894,0,0,0-2.507.678,2.375,2.375,0,0,0-.826,1.947,2.385,2.385,0,0,0,.62,1.784,2.43,2.43,0,0,0,1.769.6Zm13.538,1.829a1.047,1.047,0,0,1-.649-.162,1.322,1.322,0,0,1-.354-.664L89.392,5.528a2.965,2.965,0,0,1-.147-.678.365.365,0,0,1,.413-.413h1.652a1.045,1.045,0,0,1,.663.162,1.4,1.4,0,0,1,.339.664l2.832,11.149L97.768,5.264a1.181,1.181,0,0,1,.325-.664,1.112,1.112,0,0,1,.678-.162h1.357a1.116,1.116,0,0,1,.679.162,1.182,1.182,0,0,1,.324.664l2.655,11.3,2.92-11.3a1.409,1.409,0,0,1,.339-.664,1.043,1.043,0,0,1,.664-.162h1.563a.365.365,0,0,1,.413.413,1.392,1.392,0,0,1-.029.265,3.721,3.721,0,0,1-.119.412l-4.07,13.037a1.32,1.32,0,0,1-.354.664,1.053,1.053,0,0,1-.648.162h-1.445a1.039,1.039,0,0,1-.678-.177,1.279,1.279,0,0,1-.324-.678L99.39,7.682,96.8,18.536a1.274,1.274,0,0,1-.325.678,1.044,1.044,0,0,1-.678.177ZM116,19.834a11.428,11.428,0,0,1-2.6-.295,7.523,7.523,0,0,1-1.947-.678.979.979,0,0,1-.619-.944v-.856q0-.531.384-.531a.916.916,0,0,1,.31.059q.162.06.429.177a8.864,8.864,0,0,0,1.858.59,9.9,9.9,0,0,0,2.006.207,4.545,4.545,0,0,0,2.463-.56,1.788,1.788,0,0,0,.87-1.594,1.627,1.627,0,0,0-.457-1.18,4.337,4.337,0,0,0-1.7-.883l-2.448-.766a5.222,5.222,0,0,1-2.7-1.711,4,4,0,0,1-.841-2.448,3.749,3.749,0,0,1,.457-1.873,4.523,4.523,0,0,1,1.208-1.387,5.342,5.342,0,0,1,1.755-.87A7.5,7.5,0,0,1,116.556,4a8.946,8.946,0,0,1,1.134.074q.575.074,1.091.192t.959.265a4.338,4.338,0,0,1,.708.295,1.613,1.613,0,0,1,.5.413.943.943,0,0,1,.148.56v.8c0,.354-.128.531-.384.531a1.783,1.783,0,0,1-.649-.207,7.847,7.847,0,0,0-3.244-.649,4.421,4.421,0,0,0-2.242.472,1.62,1.62,0,0,0-.8,1.5,1.6,1.6,0,0,0,.5,1.2,4.975,4.975,0,0,0,1.858.929l2.389.766a5.154,5.154,0,0,1,2.61,1.622,3.8,3.8,0,0,1,.781,2.361,4.271,4.271,0,0,1-.442,1.962,4.468,4.468,0,0,1-1.224,1.489,5.5,5.5,0,0,1-1.873.944,8.357,8.357,0,0,1-2.389.324Z" transform="translate(-73.369 -3.996)"/>
    <path id="Path_4452" data-name="Path 4452" d="M51.818,660.358c-5.549,4.1-13.6,6.273-20.522,6.273a37.14,37.14,0,0,1-25.068-9.563c-.519-.469-.056-1.11.568-.747a50.459,50.459,0,0,0,25.083,6.655,49.893,49.893,0,0,0,19.132-3.915C51.949,658.663,52.736,659.68,51.818,660.358Z" transform="translate(-6.004 -636.22)" fill="#f89628" fill-rule="evenodd"/>
    <path id="Path_4453" data-name="Path 4453" d="M1356.345,626.2c-.71-.909-4.69-.429-6.481-.215-.542.065-.626-.409-.137-.751,3.177-2.231,8.381-1.587,8.986-.84s-.161,5.971-3.137,8.461c-.46.383-.894.179-.691-.327.67-1.673,2.17-5.418,1.459-6.328Z" transform="translate(-1308.221 -604.701)" fill="#f89628" fill-rule="evenodd"/>
  </g>
</svg>
