<?xml version="1.0" encoding="UTF-8"?>
<svg id="Layer_2" data-name="Layer 2" xmlns="http://www.w3.org/2000/svg" width="353.17" height="99.69" viewBox="0 0 353.17 99.69">
  <defs>
    <style>
      .cls-1 {
        fill: #7fba00;
      }

      .cls-1, .cls-2, .cls-3, .cls-4, .cls-5 {
        stroke-width: 0px;
      }

      .cls-2 {
        fill: #737373;
      }

      .cls-3 {
        fill: #00a4ef;
      }

      .cls-4 {
        fill: #f25022;
      }

      .cls-5 {
        fill: #ffb900;
      }
    </style>
  </defs>
  <g id="Layer_1-2" data-name="Layer 1">
    <path class="cls-2" d="m141.34,66.06l-5.98,17.03h12.12l-5.95-17.03h-.2Zm4.17-7.5l15.22,40.42h-7.72l-3.58-10.03h-15.93l-3.44,10.03h-7.67l15.22-40.42h7.89Z"/>
    <path class="cls-2" d="m164.16,70.01h23.14v2.73l-15.19,20.83h15.28v5.41h-24.3v-3.24l14.97-20.32h-13.9v-5.41Z"/>
    <g>
      <path class="cls-2" d="m216.41,70.01v28.98h-6.88v-3.81h-.11c-.9,1.31-2.11,2.35-3.62,3.09-1.51.74-3.21,1.11-5.09,1.11-3.37,0-5.93-.95-7.68-2.86-1.76-1.91-2.64-4.87-2.64-8.89v-17.62h6.91v16.8c0,2.44.48,4.28,1.45,5.51.97,1.23,2.43,1.85,4.38,1.85s3.49-.68,4.65-2.04c1.17-1.36,1.75-3.14,1.75-5.34v-16.77h6.88Z"/>
      <path class="cls-2" d="m236.95,69.53c.55,0,1.03.04,1.47.11.43.07.8.17,1.1.28v6.91c-.36-.26-.88-.51-1.56-.75-.69-.23-1.52-.35-2.49-.35-1.67,0-3.09.71-4.24,2.11-1.16,1.41-1.73,3.58-1.73,6.51v14.63h-6.82v-28.98h6.82v4.57h.11c.62-1.58,1.56-2.81,2.82-3.71,1.26-.89,2.77-1.34,4.54-1.34"/>
      <path class="cls-2" d="m259.71,81.57c0-2.25-.52-3.98-1.57-5.16-1.04-1.19-2.51-1.78-4.41-1.78-1.64,0-3.1.59-4.4,1.76-1.3,1.17-2.16,2.9-2.59,5.17h12.97Zm4.37,10.12v5.61c-1.13.71-2.6,1.29-4.43,1.73-1.82.44-3.77.66-5.84.66-4.42,0-7.85-1.31-10.3-3.92-2.45-2.61-3.68-6.25-3.68-10.91s1.31-8.19,3.93-11.09c2.62-2.9,5.94-4.35,9.97-4.35s7.12,1.23,9.34,3.68c2.23,2.45,3.34,5.84,3.34,10.16v3.3h-19.85c.3,2.91,1.24,4.95,2.81,6.1,1.57,1.16,3.59,1.73,6.07,1.73,1.64,0,3.19-.25,4.68-.75,1.48-.5,2.8-1.15,3.95-1.96"/>
    </g>
    <path class="cls-2" d="m339.41,20.02h-10.16v23.4h-6.91v-23.4h-4.85v-5.58h4.85v-4.03c0-3.04.99-5.54,2.97-7.48,1.98-1.95,4.52-2.92,7.62-2.92.83,0,1.56.04,2.2.13.64.08,1.2.21,1.69.38v5.89c-.23-.13-.62-.29-1.18-.48-.56-.19-1.21-.28-1.94-.28-1.43,0-2.53.45-3.3,1.34-.77.89-1.16,2.21-1.16,3.96v3.5h10.16v-6.51l6.85-2.09v8.6h6.91v5.58h-6.91v13.56c0,1.79.32,3.05.97,3.78.65.73,1.67,1.1,3.06,1.1.39,0,.87-.09,1.42-.28.55-.19,1.04-.41,1.45-.68v5.64c-.43.24-1.15.47-2.16.68-1.01.21-2,.31-2.97.31-2.88,0-5.03-.76-6.47-2.3-1.44-1.53-2.16-3.84-2.16-6.92v-14.88Zm-45.3,9.11c0,3.03.69,5.34,2.06,6.93,1.37,1.6,3.33,2.4,5.89,2.4s4.37-.8,5.67-2.4c1.3-1.6,1.95-3.97,1.95-7.1s-.67-5.47-2.02-7.06c-1.34-1.59-3.23-2.38-5.65-2.38s-4.44.83-5.82,2.49c-1.38,1.66-2.07,4.04-2.07,7.12m-7.1.23c0-4.79,1.35-8.59,4.06-11.39,2.71-2.8,6.46-4.2,11.28-4.2,4.53,0,8.07,1.35,10.61,4.05,2.55,2.7,3.82,6.34,3.82,10.92s-1.35,8.44-4.06,11.22c-2.71,2.78-6.39,4.17-11.05,4.17s-8.06-1.32-10.7-3.96c-2.64-2.64-3.96-6.24-3.96-10.81m-15.36-7.3c0,.98.31,1.74.93,2.3s1.99,1.25,4.12,2.1c2.73,1.09,4.64,2.32,5.74,3.68,1.1,1.36,1.65,3.01,1.65,4.95,0,2.73-1.05,4.91-3.14,6.57-2.1,1.65-4.93,2.48-8.5,2.48-1.2,0-2.53-.14-3.99-.44s-2.69-.66-3.71-1.11v-6.71c1.24.86,2.57,1.55,4,2.06,1.43.51,2.72.76,3.89.76,1.54,0,2.68-.22,3.41-.65s1.1-1.16,1.1-2.17c0-.94-.38-1.73-1.14-2.38-.76-.65-2.2-1.4-4.33-2.24-2.52-1.05-4.3-2.24-5.36-3.55-1.05-1.32-1.58-2.99-1.58-5.02,0-2.61,1.04-4.76,3.11-6.44,2.08-1.68,4.77-2.52,8.08-2.52,1.01,0,2.15.11,3.41.34,1.26.23,2.31.52,3.16.87v6.48c-.9-.6-1.95-1.12-3.16-1.55-1.2-.43-2.4-.65-3.58-.65-1.3,0-2.31.25-3.03.76-.72.51-1.09,1.2-1.09,2.09m-32.81,7.08c0,3.03.69,5.34,2.06,6.93,1.37,1.6,3.33,2.4,5.89,2.4s4.37-.8,5.67-2.4c1.3-1.6,1.95-3.97,1.95-7.1s-.67-5.47-2.02-7.06c-1.34-1.59-3.23-2.38-5.65-2.38s-4.44.83-5.82,2.49c-1.38,1.66-2.07,4.04-2.07,7.12m-7.1.23c0-4.79,1.35-8.59,4.06-11.39,2.71-2.8,6.46-4.2,11.28-4.2,4.53,0,8.07,1.35,10.61,4.05,2.55,2.7,3.82,6.34,3.82,10.92s-1.35,8.44-4.06,11.22c-2.71,2.78-6.39,4.17-11.05,4.17s-8.06-1.32-10.7-3.96c-2.64-2.64-3.96-6.24-3.96-10.81m-2.93-15.39c.55,0,1.03.04,1.47.11.43.07.8.17,1.1.28v6.91c-.36-.26-.88-.51-1.56-.75-.69-.24-1.52-.35-2.49-.35-1.67,0-3.09.71-4.24,2.11-1.16,1.41-1.73,3.58-1.73,6.51v14.63h-6.82V14.43h6.82v4.57h.11c.62-1.58,1.56-2.81,2.82-3.71,1.26-.89,2.77-1.34,4.54-1.34m-26.16,24.5c1.01,0,2.13-.23,3.35-.7,1.22-.47,2.35-1.09,3.38-1.86v6.34c-1.09.62-2.33,1.09-3.71,1.41-1.38.32-2.9.48-4.55.48-4.27,0-7.73-1.35-10.4-4.04-2.67-2.7-4-6.14-4-10.33,0-4.66,1.36-8.5,4.09-11.52,2.72-3.02,6.59-4.52,11.59-4.52,1.28,0,2.57.17,3.88.49,1.31.33,2.34.71,3.11,1.14v6.54c-1.05-.77-2.13-1.37-3.23-1.79-1.1-.42-2.22-.63-3.37-.63-2.69,0-4.86.87-6.51,2.62-1.65,1.75-2.48,4.11-2.48,7.08s.79,5.22,2.38,6.85c1.59,1.64,3.74,2.45,6.47,2.45m-20.69,4.96h-6.82V14.43h6.82v28.98Zm-7.53-37.35c0-1.13.41-2.07,1.23-2.83.82-.76,1.79-1.14,2.92-1.14,1.2,0,2.2.39,2.99,1.17.79.78,1.19,1.71,1.19,2.8s-.41,2.04-1.21,2.79-1.79,1.13-2.96,1.13-2.15-.38-2.95-1.14c-.8-.76-1.2-1.69-1.2-2.78m-5.87-3.07v40.43h-7.02V11.73h-.11l-12.54,31.69h-4.65l-12.85-31.69h-.08v31.69h-6.48V2.99h10.06l11.61,29.97h.17l12.26-29.97h9.64Z"/>
    <path id="reuse-1" class="cls-4" d="m45.63,48.61H0V2.99h45.63v45.62Z"/>
    <path id="reuse-2" class="cls-1" d="m96,48.61h-45.62V2.99h45.62v45.62Z"/>
    <path id="reuse-3" class="cls-3" d="m45.63,98.99H0v-45.62h45.63v45.62Z"/>
    <path id="reuse-4" class="cls-5" d="m96,98.99h-45.62v-45.62h45.62v45.62Z"/>
    <path id="reuse-1-2" data-name="reuse-1" class="cls-4" d="m45.63,48.61H0V2.99h45.63v45.62Z"/>
    <path id="reuse-2-2" data-name="reuse-2" class="cls-1" d="m96,48.61h-45.62V2.99h45.62v45.62Z"/>
    <path id="reuse-3-2" data-name="reuse-3" class="cls-3" d="m45.63,98.99H0v-45.62h45.63v45.62Z"/>
    <path id="reuse-4-2" data-name="reuse-4" class="cls-5" d="m96,98.99h-45.62v-45.62h45.62v45.62Z"/>
  </g>
</svg>