<?xml version="1.0" encoding="UTF-8" standalone="no"?>
<!-- Generator: Adobe Illustrator 15.0.0, SVG Export Plug-In . SVG Version: 6.00 Build 0)  -->

<svg
   version="1.1"
   id="Layer_1"
   x="0px"
   y="0px"
   width="256px"
   height="256px"
   viewBox="0 0 256 256"
   enable-background="new 0 0 256 256"
   xml:space="preserve"
   sodipodi:docname="facebook.svg"
   inkscape:version="1.1.1 (3bf5ae0d25, 2021-09-20)"
   xmlns:inkscape="http://www.inkscape.org/namespaces/inkscape"
   xmlns:sodipodi="http://sodipodi.sourceforge.net/DTD/sodipodi-0.dtd"
   xmlns="http://www.w3.org/2000/svg"
   xmlns:svg="http://www.w3.org/2000/svg"><defs
   id="defs3149" /><sodipodi:namedview
   id="namedview3147"
   pagecolor="#ffffff"
   bordercolor="#666666"
   borderopacity="1.0"
   inkscape:pageshadow="2"
   inkscape:pageopacity="0.0"
   inkscape:pagecheckerboard="0"
   showgrid="false"
   inkscape:zoom="3.171875"
   inkscape:cx="122.16749"
   inkscape:cy="119.33005"
   inkscape:window-width="1920"
   inkscape:window-height="1001"
   inkscape:window-x="-9"
   inkscape:window-y="-9"
   inkscape:window-maximized="1"
   inkscape:current-layer="Layer_1" />
<path
   d="M 102.03597,93.961608 H 92.629026 V 74.133622 H 85.957 V 64.97928 h 6.672026 v -4.984611 c 0,-6.740527 4.081536,-10.927669 10.651664,-10.927669 2.81198,0 5.29487,0.2095 6.05694,0.310825 l 0.61937,0.08249 v 8.249554 l -4.80508,0.002 c -2.63416,0 -3.11595,1.026663 -3.11595,3.048307 v 4.21968 h 7.74921 l -1.18051,9.154628 h -6.56899 l 2.9e-4,19.827129 z m -7.979833,-1.42711 h 6.552723 V 72.706512 h 6.74138 l 0.8126,-6.300121 h -7.55398 v -5.646505 c 0,-2.083581 0.51632,-4.475418 4.54277,-4.475418 l 3.37826,-0.0014 v -5.55831 c -1.07376,-0.101324 -3.05059,-0.230906 -5.2492,-0.230906 -5.776084,0 -9.224553,3.551507 -9.224553,9.500559 v 6.412007 H 87.38411 v 6.300406 h 6.672027 z"
   id="path3144"
   style="stroke-width:0.285422" />
</svg>
